<?xml version="1.0" encoding="utf-8"?>
<!-- Generated by IcoMoon.io -->
<!DOCTYPE svg PUBLIC "-//W3C//DTD SVG 1.1//EN" "http://www.w3.org/Graphics/SVG/1.1/DTD/svg11.dtd">
<svg version="1.1" xmlns="http://www.w3.org/2000/svg" xmlns:xlink="http://www.w3.org/1999/xlink" width="2565" height="1024" viewBox="0 0 2565 1024">
<g id="icomoon-ignore">
</g>
<path fill="#000" d="M2071.096 1024.269c-108.569 0-196.582-88.013-196.582-196.582s88.013-196.582 196.582-196.582c108.569 0 196.582 88.013 196.582 196.582-0.153 108.508-88.074 196.43-196.568 196.582zM2071.096 678.638c-82.169 0-148.779 66.611-148.779 148.779s66.611 148.779 148.779 148.779c82.169 0 148.779-66.611 148.779-148.779-0.152-82.107-66.672-148.627-148.765-148.779zM384.571 1024.269c-108.569 0-196.582-88.013-196.582-196.582s88.013-196.582 196.582-196.582c108.569 0 196.582 88.013 196.582 196.582-0.153 108.508-88.074 196.43-196.568 196.582zM384.571 678.638c-82.169 0-148.779 66.611-148.779 148.779s66.611 148.779 148.779 148.779c82.169 0 148.779-66.611 148.779-148.779-0.152-82.107-66.672-148.627-148.765-148.779zM2310.378 925.172h-43.774l9.399-30.884c6.756-19.951 10.656-42.931 10.656-66.821 0-118.655-96.189-214.844-214.844-214.844s-214.844 96.189-214.844 214.844c0 22.207 3.369 43.627 9.625 63.777l8.187 29.093h-31.958l-1254.957-14.502 6.177-29.004c4.48-16.381 7.053-35.189 7.053-54.599 0-118.655-96.189-214.844-214.844-214.844s-214.844 96.189-214.844 214.844c0 3.24 0.072 6.464 0.214 9.669-0.016 3.841-0.016 8.138-0.016 12.435l1.88 28.735-28.735-3.491c-53.711-6.714-87.549-11.816-88.086-11.816l-12.354-2.148-5.371-11.816c-24.363-46.042-38.665-100.644-38.665-158.587 0-34.6 5.1-68.010 14.589-99.517 10.119-30.925 26.25-59.803 46.975-84.725 26.515-224.091 309.035-433.564 321.925-442.426l4.028-2.954h5.64c214.844-35.181 534.693-71.704 827.686-45.117 95.955 6.031 185.603 23.274 270.782 50.512 150.581 42.408 440.351 202.466 474.189 221.534 397.461 97.217 545.435 205.445 551.612 210.010l3.223 2.417 2.148 3.223c10.99 12.781 17.681 29.533 17.681 47.848 0 5.792-0.669 11.428-1.934 16.834-1.212 3.399-2.848 6.773-4.847 9.893 49.794 87.9 26.967 196.934 15.419 233.189 9.237 11.601 14.82 26.468 14.82 42.64 0 5.74-0.704 11.317-2.029 16.647-5.089 14.642-16.899 26.275-31.774 31.117-60.546 11.95-135.377 22.131-211.333 28.334l-7.624 0.501zM2071.901 569.874c144.452 0.014 261.547 117.119 261.547 261.573 0 15.559-1.359 30.802-3.963 45.614 71.57-7.361 135.276-16.018 197.871-27.817l-11.534 1.808c-1.35-9.969-5.921-18.682-12.615-25.237l-7.796-10.212 4.297-12.085s44.849-134.277-16.65-219.678l-18.53-26.855 26.855-9.668c-0.951-6.968-3.63-13.176-7.588-18.355-33.534-22.004-72.327-43.185-112.841-61.199-121.876-55.121-260.020-102.737-403.176-137.548l-19.682-3.382-2.686-2.686c-3.223-1.88-316.358-176.709-475.342-221.021h-2.148c-74.717-24.459-161.392-41.399-251.069-47.361-161.163-14.138-428.912-17.898-808.918 43.87-38.672 28.467-282.52 222.632-299.707 414.38v8.862l-7.52 5.908c-18.924 21.374-33.502 47.065-42.059 75.371-7.28 25.178-11.254 52.45-11.254 80.651 0 46.398 10.756 90.285 29.909 129.302l46.23 4.716c3.528-141.615 119.167-255.069 261.304-255.069 144.356 0 261.38 117.024 261.38 261.38 0 2.219-0.028 4.432-0.083 6.638 0.224 3.684 0.347 8.378 0.347 13.101s-0.124 9.417-0.368 14.079l1168.241 13.313c-2.040-12.271-3.205-26.41-3.205-40.822 0-144.173 116.641-261.103 260.705-261.571zM2516.36 850.782v0zM2495.413 546.241v0zM1821.877 468.36h-24.17c-50.488-1.611-136.426-8.057-255.396-18.799v0c-101.514-10.205-369.532-35.986-394.239-36.255h-20.947l-2.686-20.41c-14.231-104.424-35.924-197.697-65.269-287.51l-7.509-17.568 30.884-2.954c12.199-0.636 26.484-0.999 40.855-0.999 62.783 0 123.95 6.918 182.78 20.034 195.241 41.26 372.91 117.21 530.266 221.38l-4.095-3.551c11.011 8.594 66.065 53.711 59.888 96.948-3.549 20.055-17.444 36.181-35.868 42.846-8.696 4.506-18.546 7.079-28.996 7.079-1.935 0-3.85-0.088-5.74-0.261zM1546.608 401.49c223.706 20.41 275.269 19.605 286.548 18.53v0c4.548-1.061 8.367-3.656 10.974-7.199-7.875-21.716-22.104-39.5-40.4-51.644-329.632-209.981-598.456-229.854-686.542-230.123 20.014 65.169 37.822 144.741 49.889 226.184 81.972 15.247 345.693 41.028 379.53 44.25zM1015.675 401.49l-25.513-2.417-432.911-38.94-5.371-13.428c-19.158-44.151-37.531-97.81-51.928-153.073-2.872-11.93-3.498-16.375-3.498-20.966 0-9.419 2.636-18.223 7.21-25.714 12.958-18.989 33.999-31.938 58.148-33.872l0.274-0.018c114.646-18.225 249.711-30.497 386.95-34.024l24.207-0.083 3.76 19.873c1.611 8.862 41.895 214.844 40.015 278.491zM589.478 315.284l378.125 35.718c-4.565-57.739-23.364-164.356-34.375-222.632-132.26 3.893-258.014 15.376-381.386 34.109 7.559-1.785-1.154 2.026-7.78 8.081l0.030-0.027v4.834c13.433 54.799 28.984 101.442 47.786 146.386z"></path>
</svg>
