<?xml version="1.0" encoding="utf-8"?>
<!-- Generated by IcoMoon.io -->
<!DOCTYPE svg PUBLIC "-//W3C//DTD SVG 1.1//EN" "http://www.w3.org/Graphics/SVG/1.1/DTD/svg11.dtd">
<svg version="1.1" xmlns="http://www.w3.org/2000/svg" xmlns:xlink="http://www.w3.org/1999/xlink" width="2653" height="1024" viewBox="0 0 2653 1024">
<g id="icomoon-ignore">
</g>
<path fill="#000" d="M532.978 603.085c-98.040 20.174-170.716 105.771-170.716 208.341 0 117.354 95.134 212.487 212.487 212.487 102.571 0 188.167-72.676 208.104-169.342 2.969-14.14 4.534-28.806 4.534-43.838 0-117.055-94.891-211.946-211.946-211.946-15.032 0-29.698 1.565-43.845 4.541zM536.768 972.029c-73.926-17.675-128.036-83.184-128.036-161.33 0-91.491 74.168-165.659 165.659-165.659 78.146 0 143.655 54.11 161.102 126.907 3.283 12.975 5.036 26.575 5.036 40.584 0 90.743-73.562 164.306-164.306 164.306-14.009 0-27.609-1.753-40.592-5.052z"></path>
<path fill="#000" d="M1827.392 368.131c-113.82-130.395-268.762-222.329-444.461-255.571-24.386-6.861-46.861-10.587-70.136-11.049l-31.374-2.44 54.137 290.445h18.407c231.435 13.264 381.395 21.113 446.359 23.82h15.429l44.392 1.624zM1373.454 344.582l-35.189-192.998 24.091 4.331c123.331 23.359 232.069 73.901 323.804 145.269 24.725 19.191 48.219 40.111 70.209 62.511-74.876-2.060-203.451-9.097-382.915-19.113z"></path>
<path fill="#000" d="M2650.273 606.063c-5.666-54.594-15.871-104.294-30.444-152.089-8.805-26.834-59.423-66.624-359.341-114.536-143.734-23.008-286.384-37.896-317.784-41.144-319.679-227.375-504.827-267.707-517.82-270.685-288.008-66.318-1181.268 6.226-1231.344 10.286-1.974-0.373-4.245-0.586-6.565-0.586-15.932 0-29.517 10.046-34.766 24.15-6.851 24.077 18.323 44.378 29.15 53.040l8.121 5.143c-49.461 72.963-96.207 156.663-135.665 244.351l-5.632 13.882v3.519c-0.273 6.116-0.429 13.289-0.429 20.498 0 41.247 5.091 81.304 14.68 119.579-20.206 23.688-40.778 55.629-41.861 56.982v2.978c-10.622 23.845-16.807 51.669-16.807 80.938 0 42.532 13.062 82.014 35.393 114.652l1.445 2.010 2.707 1.895c49.806 38.708 226.834 54.137 261.752 56.844l19.76 1.895 2.707-22.196c7.388-50.098 19.769-95.138 36.894-137.761 32.942-80.952 79.771-126.968 136.885-131.299 49.535-5.414 187.043-6.226 227.375 52.242l2.165 0.541c49.161 67.535 82.988 149.264 94.721 237.964l3.267 21.894 19.489 6.226c499.142 12.993 1130.65 23.55 1137.146 23.55h2.436l15.158-11.639v-57.927c10.192-50.367 24.303-94.663 42.565-136.741 32.956-80.89 82.221-126.635 139.606-132.32 49.806-5.414 189.479-6.496 229.27 52.242l2.165 1.895c44.254 59.792 76.021 131.517 89.954 209.423l5.597 26.885 70.107-17.053 3.519-2.436c53.054-34.918 74.709-108.003 64.423-217.089zM2563.113 782.549l-14.617 3.519c-17.177-79.798-49.964-150.010-95.195-210.358-26.072-38.401-81.833-62.492-161.414-70.071-16.224-1.564-35.077-2.456-54.137-2.456s-37.913 0.892-56.517 2.636c-175.189 17.144-207.942 299.197-209.295 311.107l4.060 1.353v14.076c-108.274 0-656.41-5.955-1103.581-17.324-15.168-93.050-51.897-175.545-104.91-244.935-26.102-38.472-82.945-62.563-161.444-70.142-16.224-1.551-35.077-2.436-54.137-2.436s-37.913 0.885-56.521 2.615c-148.116 14.438-197.652 219.346-210.103 288.641-75.792-6.226-182.441-22.467-213.841-42.768-15.082-23.627-24.039-52.434-24.039-83.333 0-21.803 4.46-42.565 12.517-61.422 4.214-6.287 26.681-40.935 43.734-62.861l7.308-9.203-2.707-11.639c-9.673-36.108-15.229-77.564-15.229-120.317 0-2.904 0.026-5.802 0.077-8.693 46.067-100.727 95.115-186.874 150.835-268.083l9.675-14.077-20.572-12.722c-5.143-3.248-10.286-6.767-15.158-10.286 141.297-11.098 937.11-69.566 1196.967-9.203v0c50.668 12.841 94.545 28.865 136.243 48.723 139.030 63.944 262.189 137.116 376.594 221.474l-0.702-0.325 18.677 2.978c40.061 4.060 170.531 17.595 302.896 38.708 297.753 47.099 326.987 83.912 329.423 88.514 12.159 39.363 21.693 85.843 26.782 133.65 4.347 63.679 1.64 141.907-41.67 174.66z"></path>
<path fill="#000" d="M1236.487 98.259c-89.597-6.226-237.932-12.993-435.802-9.745h-17.865l-67.4 264.459 556.798 33.024-14.888-286.384zM776.324 309.934l44.392-174.592c172.697-2.436 305.874 2.978 393.034 8.391l8.933 191.915z"></path>
<path fill="#000" d="M740.052 89.867c-71.731 1.895-145.358 4.872-219.255 9.203h-33.565c-27.068 2.978-93.657 11.369-121.808 34.648-56.169 43.941-104.42 94.429-144.678 151l-23.688 37.667 42.497 2.707 429.306 24.362h18.136l86.078-262.835zM653.974 302.625l-367.048-21.655c33.448-40.473 70.394-76.044 110.987-107.086l3.512-2.541c17.053-14.888 79.311-23.82 119.643-25.444h20.572c54.137-2.978 110.981-5.414 164.306-7.038z"></path>
<path fill="#000" d="M2219.614 603.085c-98.040 20.174-170.716 105.771-170.716 208.341 0 117.354 95.134 212.487 212.487 212.487 102.571 0 188.167-72.676 208.104-169.342 2.969-14.14 4.534-28.806 4.534-43.838 0-117.055-94.891-211.946-211.946-211.946-15.032 0-29.698 1.565-43.845 4.541zM2224.486 972.029c-73.926-17.675-128.036-83.184-128.036-161.33 0-91.491 74.168-165.659 165.659-165.659 78.146 0 143.655 54.11 161.102 126.907 3.283 12.975 5.036 26.575 5.036 40.584 0 90.743-73.562 164.306-164.306 164.306-14.009 0-27.609-1.753-40.592-5.052z"></path>
</svg>
