<?xml version="1.0" encoding="utf-8"?>
<!-- Generated by IcoMoon.io -->
<!DOCTYPE svg PUBLIC "-//W3C//DTD SVG 1.1//EN" "http://www.w3.org/Graphics/SVG/1.1/DTD/svg11.dtd">
<svg version="1.1" xmlns="http://www.w3.org/2000/svg" xmlns:xlink="http://www.w3.org/1999/xlink" width="3028" height="1024" viewBox="0 0 3028 1024">
<g id="icomoon-ignore">
</g>
<path fill="#000" d="M2532.476 1024c-126.039-0.533-228.007-102.83-228.007-228.944 0-126.443 102.502-228.946 228.946-228.946s228.944 102.501 228.946 228.944c-0.178 126.482-102.752 228.947-229.258 228.947-0.22 0-0.44 0-0.66-0.001zM2532.476 621.469c-95.869 0-173.586 77.717-173.586 173.586s77.717 173.586 173.586 173.586c95.869 0 173.586-77.717 173.586-173.586 0 0 0 0 0 0 0-95.932-77.679-173.72-173.569-173.898zM747.827 1024c-126.443 0-228.946-102.502-228.946-228.946s102.502-228.946 228.946-228.946c126.443 0 228.946 102.502 228.946 228.946-0.178 126.372-102.574 228.768-228.929 228.946zM747.827 621.469c-95.869 0-173.586 77.717-173.586 173.586s77.717 173.586 173.586 173.586c95.869 0 173.586-77.717 173.586-173.586 0 0 0 0 0 0 0-95.932-77.679-173.72-173.569-173.898zM2251.299 817.886c-79.13 0-1106.883-18.141-1227.924-20.33h-23.77l-3.44-23.77c-12.511-88.513-46.915-152.005-102.588-187.66-22.794-16.259-50.311-27.404-80.125-31.185l-3.697-0.091c-24.125-2.166-52.187-3.401-80.538-3.401s-56.411 1.235-84.133 3.654c-50.513 6.315-118.071 46.037-134.022 197.729l-2.815 25.647-364.061-14.387c-65.056-3.753-109.156-23.458-130.737-58.175-8.522-14.58-13.554-32.101-13.554-50.796 0-13.94 2.797-27.226 7.861-39.328l2.252-5.895 29.087-21.581c-25.96-176.088 21.268-277.737 23.145-281.491l7.506-15.638h1070.915c0-46.915 5.317-118.852 5.63-125.107-0.054-1.62-0.084-3.524-0.084-5.436 0-48.911 20.012-93.147 52.295-124.968 25.384-21.679 58.558-34.858 94.81-34.858 2.083 0 4.155 0.044 6.217 0.13 70.078-2.825 429.447-0.010 447.901-0.010h6.255c149.816 0 209.554 44.413 221.439 54.734 69.747 50.668 246.461 195.48 286.808 226.756 416.919 6.881 594.258 68.809 603.328 71.624 81.945 28.149 136.054 99.773 156.384 207.052 5.36 28.557 8.426 61.411 8.426 94.98 0 18.208-0.902 36.206-2.664 53.951 0.182-2.070 0.183-1.865 0.183-1.66 0 15.238-6.088 29.054-15.964 39.149-36.271 38.46-131.978 41.588-156.374 41.588-9.070 0-25.647 2.815-50.043 4.379l-27.211 1.877-1.877-27.211c-2.666-49.274-14.609-95.133-34.104-136.748-17.671-40.592-57.229-71.199-104.455-76.811-24.754-2.303-52.808-3.582-81.161-3.582s-56.407 1.279-84.107 3.782l-1.435-0.26c-6.568 0-165.454 8.445-187.66 238.641l-2.502 23.77h-29.087zM1047.145 742.197c382.514 6.881 1049.021 18.453 1183.199 20.017 11.572-76.315 43.475-169.207 126.671-224.254 31.191-21.219 68.842-35.286 109.483-39.027 26.791-2.504 56.858-3.892 87.248-3.892s60.458 1.388 90.14 4.105l-3.817-0.282c66.714 8.039 122.036 50.057 148.709 107.99 18.691 38.403 31.524 81.681 36.601 127.3l20.804-0.402h4.379c22.272-0.233 43.92-2.044 65.082-5.327 47.202-7.496 54.708-20.32 54.708-20.32v-5.317c0-2.502 28.462-243.958-125.107-296.816-1.877 0-182.656-62.553-594.258-68.809h-10.321l-7.506-5.943c-2.189-1.877-216.748-177.339-291.499-231.135h-2.189c-3.753-3.128-54.109-42.224-191.101-40.973v0c-3.753 0-381.263-3.128-446.944 0h-5.004c-0.738-0.021-1.605-0.034-2.476-0.034-22.345 0-42.81 8.052-58.65 21.414-21.038 22.25-34.058 52.521-34.058 85.834 0 1.783 0.037 3.557 0.111 5.322l-0.008-0.252s-5.943 111.032-5.943 147.001v26.585h-1088.43c-12.93 43.671-20.369 93.847-20.369 145.76 0 36.966 3.772 73.050 10.953 107.89l2.223 13.453-42.849 31.277c-0.951 3.419-1.498 7.344-1.498 11.397 0 7.873 2.063 15.265 5.679 21.663 11.145 17.608 41.797 28.867 86.209 31.057l312.767 10.947c20.017-131.675 84.76-210.18 183.282-221.439v0c25.861-2.354 55.935-3.696 86.324-3.696s60.462 1.342 90.167 3.97c35.44 3.766 70.976 16.979 101.489 37.172 66.869 47.559 113.724 121.252 125.618 206.155zM2079.277 398.153h-495.423l-2.189-25.334c0-7.506-7.194-160.45 0-276.173v-26.898l221.752 5.943c48.088 3.841 91.65 20.493 128.071 46.502 67.406 49.803 127.584 102.541 183.071 159.849 11.321 12.274 44.474 47.616 29.149 82.333-12.909 20.514-35.429 33.946-61.087 33.946-1.727 0-3.439-0.061-5.135-0.18zM1636.398 342.793h441.002c4.662 0 9.191-0.57 13.521-1.645-4.938-7.642-10.115-14.313-16.027-20.253-53.402-55.23-110.814-105.797-172.047-151.53l-3.724-2.66c-27.341-19.181-60.566-31.822-96.512-34.976l-167.776-5.683c-3.128 80.381-0.938 172.335 1.564 216.748zM1561.334 398.153h-262.412c-37.163-1.497-66.724-31.987-66.724-69.381 0-1.339 0.038-2.669 0.113-3.989l-0.008-187.477c0-0.093-0.001-0.203-0.001-0.313 0-38.583 31.189-69.882 69.731-70.059h0.017l258.346 3.128v328.093zM1301.737 120.728c-7.984 0.173-14.391 6.687-14.391 14.697 0 0.111 0.001 0.222 0.004 0.332v187.644c-0.096 0.664-0.151 1.431-0.151 2.211 0 7.364 4.895 13.585 11.608 15.588l206.542 0.029v-218.937z"></path>
</svg>
