<?xml version="1.0" encoding="utf-8"?>
<!-- Generated by IcoMoon.io -->
<!DOCTYPE svg PUBLIC "-//W3C//DTD SVG 1.1//EN" "http://www.w3.org/Graphics/SVG/1.1/DTD/svg11.dtd">
<svg version="1.1" xmlns="http://www.w3.org/2000/svg" xmlns:xlink="http://www.w3.org/1999/xlink" width="3077" height="1024" viewBox="0 0 3077 1024">
<g id="icomoon-ignore">
</g>
<path fill="#000" d="M2474.745 1023.686c-117.409 0-212.588-95.179-212.588-212.588s95.179-212.588 212.588-212.588c117.409 0 212.588 95.179 212.588 212.588-0.178 117.337-95.25 212.409-212.57 212.588zM2474.745 654.719c-86.713 0-157.007 70.294-157.007 157.007s70.294 157.007 157.007 157.007c86.713 0 157.007-70.294 157.007-157.007-0.179-86.577-70.405-156.693-157.007-156.693 0 0 0 0 0 0zM659.43 1023.686c-117.409 0-212.588-95.179-212.588-212.588s95.179-212.588 212.588-212.588c117.409 0 212.588 95.179 212.588 212.588-0.178 117.337-95.25 212.409-212.57 212.588zM659.43 654.719c-86.713 0-157.007 70.294-157.007 157.007s70.294 157.007 157.007 157.007c86.713 0 157.007-70.294 157.007-157.007-0.179-86.577-70.405-156.693-157.007-156.693 0 0 0 0 0 0zM1558.766 909.699c-219.81 0-451.552-1.57-655.661-3.768h-36.74l10.362-35.798c5.494-18.578 8.656-39.922 8.656-62.005 0-125.040-101.365-226.404-226.404-226.404s-226.404 101.365-226.404 226.404c0 19.91 2.57 39.219 7.396 57.615l9.069 34.221h-43.334c-278.845-31.401-336.623-75.363-348.242-89.494v0c-69.083-84.784-64.373-157.007-48.358-202.853 9.889-26.847 24.412-49.855 42.784-69.166-6.673-170.741 44.198-260.235 46.396-264.003l5.652-10.048 12.247-3.768c78.964-12.575 172.412-21.263 267.33-24.1 132.867-70.375 283.014-129.252 440.775-168.967 131.369-33.247 269.457-54.959 411.099-63.497 47.207-3.376 94.995-5.129 143.193-5.129 92.338 0 183.173 6.435 272.081 18.88 236.247 22.375 617.774 239.987 668.016 270.132 291.719 31.401 506.505 89.494 638.391 172.080 104.881 65.629 118.697 125.606 119.953 131.258v259.69l-16.329 7.536c-8.478 3.768-21.353 9.734-335.681 22.609h-35.484l6.594-34.856c2.829-13.418 4.449-28.835 4.449-44.631 0-124.866-101.224-226.090-226.090-226.090s-226.090 101.224-226.090 226.090c0 21.358 2.962 42.024 8.496 61.61l8.722 32.635h-38.624c-147.901 11.305-397.228 14.131-667.908 14.131zM938.588 850.036c435.538 4.396 986.632 6.594 1256.056-5.338-1.599-11.293-2.512-24.338-2.512-37.596 0-156.083 126.53-282.613 282.613-282.613 155.942 0 282.385 126.302 282.612 282.191q0 8.814 0 17.607c166.113-6.908 235.825-11.619 265.028-14.445v-208.505c-7.85-20.097-91.064-190.921-714.382-257.492h-5.966l-5.338-3.14c-4.396-3.14-416.069-244.303-663.826-268.482v0c-76.411-10.8-164.673-16.966-254.376-16.966-47.284 0-94.168 1.713-140.594 5.081-301.955 16.763-587.213 99.588-840.75 234.229l5.412-2.221h-6.908c-55.266 2.198-199.085 10.048-251.211 19.783-22.336 56.164-35.288 121.246-35.288 189.352 0 16.139 0.727 32.108 2.151 47.877l-0.148 12.098-10.99 9.106c-16.624 15.329-29.449 34.526-37.069 56.176-15.686 46.821-2.497 95.179 38.325 146.363 5.338 4.396 53.696 38.624 277.274 66.257-1.145-9.368-1.828-20.273-1.884-31.325-0.005-0.65-0.007-1.328-0.007-2.007 0-156.083 126.53-282.613 282.613-282.613s282.613 126.53 282.613 282.613c0 15.536-1.254 30.78-3.665 45.635zM2170.78 436.48h-1.57l-665.082-33.914h-20.411l-85.412-324.063h37.996c284.216 9.269 543.999 106.668 754.804 265.576 7.936 5.732 38.71 28.969 30.231 60.371-8.031 18.625-26.233 31.425-47.425 31.425-0.549 0-1.096-0.009-1.641-0.026l-1.49 0.002zM1527.679 347.3l614.526 31.401c-53.499-40.092-114.040-77.106-177.976-108.233-148.079-73.183-313.137-119.558-487.571-132.058zM1411.179 397.228l-33.914-1.884c-298.313-17.271-515.297-31.401-644.985-45.218h-11.619l-7.536-9.106c-13.807-17.142-22.162-39.181-22.162-63.171 0-8.224 0.982-16.219 2.835-23.873 9.907-35.421 42.565-63.682 96.575-83.151 14.131-5.652 219.81-84.784 555.491-90.122h25.435zM751.75 295.173c125.606 11.933 325.005 26.063 595.057 41.764l-25.121-201.911c-314.014 8.792-508.703 85.098-510.901 85.726v0c-27.311 5.479-49.816 22.52-62.564 45.687-0.936 3.252-1.336 6.442-1.336 9.726 0 6.972 1.803 13.522 4.968 19.21z"></path>
</svg>
