<?xml version="1.0" encoding="utf-8"?>
<!-- Generated by IcoMoon.io -->
<!DOCTYPE svg PUBLIC "-//W3C//DTD SVG 1.1//EN" "http://www.w3.org/Graphics/SVG/1.1/DTD/svg11.dtd">
<svg version="1.1" xmlns="http://www.w3.org/2000/svg" xmlns:xlink="http://www.w3.org/1999/xlink" width="2547" height="1024" viewBox="0 0 2547 1024">
<g id="icomoon-ignore">
</g>
<path fill="#000" d="M2145.064 1024.268c-86.63 0-156.858-70.228-156.858-156.858s70.228-156.858 156.858-156.858c86.63 0 156.858 70.228 156.858 156.858-0.152 86.569-70.289 156.705-156.843 156.858zM2145.064 756.135c-61.159 0-110.739 49.58-110.739 110.739s49.58 110.739 110.739 110.739c61.159 0 110.739-49.58 110.739-110.739-0.305-60.928-49.767-110.203-110.738-110.203 0 0-0.001 0-0.001 0zM573.268 1024.268c-86.63 0-156.858-70.228-156.858-156.858s70.228-156.858 156.858-156.858c86.63 0 156.858 70.228 156.858 156.858s-70.228 156.858-156.858 156.858zM573.268 756.135c-0.079 0-0.173 0-0.267 0-61.159 0-110.739 49.58-110.739 110.739s49.58 110.739 110.739 110.739c60.971 0 110.433-49.274 110.738-110.173 0-0.029 0-0.029 0-0.030 0-61.065-49.427-110.586-110.456-110.739zM2319.351 914.334v-30.299c-1.877-84.194-30.567-144.256-85.534-178.308-22.961-14.453-50.34-24.072-79.723-26.76-2.979-0.166-5.629-0.23-8.294-0.23-58.761 0-110.225 31.243-138.686 78.022-22.138 38.128-36.029 82.558-38.713 129.985l-0.035 22.496h-56.308c-98.137 0-1103.904-12.334-1121.064-12.602h-44.778v-21.987c-4.022-80.44-33.248-137.284-87.143-169.728-22.507-14.214-49.295-23.798-78.049-26.748-2.93-0.166-5.448-0.224-7.979-0.224-54.714 0-103.133 26.954-132.702 68.307-22.815 35.345-37.594 77.135-41.296 122.066l-2.209 22.416h-31.103c-123.197-5.184-238.733-17.276-352.012-36.054l12.556 2.269-3.486-2.145c-13.336-6.036-22.446-19.227-22.446-34.546 0-1.337 0.069-2.659 0.205-3.96 7.335-21.066 24.5-37.17 45.907-42.9l14.141-5.469c-2.44-13.754-3.834-29.588-3.834-45.749 0-23.554 2.963-46.417 8.537-68.234-12.746-383.136 48.656-601.664 51.337-610.781v-4.022c19.574-36.466 75.345-36.466 88.752-36.466 529.563-12.602 1335.034 12.602 1343.078 12.87 124.254 0.172 241.817 28.641 346.647 79.304 57.43 30.362 257.725 239.238 297.409 280.53 227.109 59.526 296.823 156.322 299.773 160.88v2.949c21.201 41.285 34.371 89.824 36.182 141.253 4.307 8.633 11.010 19.626 13.423 23.917l2.413 4.022v4.558c1.647 9.465 2.588 20.364 2.588 31.484 0 35.174-9.42 68.148-25.874 96.537l0.495-0.925c-37.807 44.778-112.884 53.627-153.372 60.33-8.312 0-17.429 2.413-20.378 3.218zM790.992 850.25v0c10.189 0 1022.659 12.602 1120.528 12.602h12.334c4.661-48.036 19.209-91.825 41.583-130.522 36.266-59.36 102.311-99.415 177.712-99.415 2.748 0 5.483 0.053 8.206 0.159l-0.392-0.012c38.941 2.663 74.57 14.787 105.245 34.068 61.060 41.298 102.036 110.213 104.959 188.854 34.066-4.126 96.004-12.706 122.55-42.737 10.711-19.969 17.003-43.689 17.003-68.878 0-7.294-0.528-14.465-1.547-21.477-3.659-5.636-11.166-18.239-14.92-26.015l-2.681-5.363v-5.899c-0.157-45.227-10.525-87.995-28.917-126.17-16.098-17.112-35.327-33.356-56.582-46.665-64.598-41.78-138.494-73.777-217.534-92.467l-11.219-2.563-4.558-4.826c-65.156-68.642-245.074-252.581-294.946-278.054-93.814-45.022-203.949-71.325-320.228-71.325-0.538 0-1.077 0.001-1.615 0.002-7.961 0-813.164-25.205-1340.582-12.602h-1.341c-2.146-0.217-4.638-0.341-7.159-0.341-13.416 0-26.013 3.506-36.925 9.653-10.702 41.719-20.847 94.098-27.853 147.466-14.914 109.982-23.012 229.239-23.012 350.387 0 35.412 0.692 70.662 2.063 105.737l-0.157 0.050-1.609 4.022c-4.157 16.914-6.542 36.333-6.542 56.308s2.385 39.393 6.885 57.986l3.143 18.969-20.378 5.363c-11.374 3.098-20.913 6.484-30.128 10.475 84.038 12.539 184.451 22.695 286.24 27.612 27.573-133.81 108.549-209.156 231.086-210.496v0c37.883 2.697 72.56 14.313 102.61 32.739 60.61 39.509 102.033 106.122 107.033 182.672zM2165.71 493.097l-545.383-27.886c-58.185-13.139-68.374-73.2-65.693-107.253-4.29-31.103-3.754-143.183-3.218-179.113s8.312-63.816 26.813-76.15c7.092-4.625 15.773-7.375 25.096-7.375 4.822 0 9.472 0.736 13.843 2.101 68.095 5.062 131.086 15.145 192.215 29.989l-8.068-1.655c14.211 3.486 57.917 14.479 201.368 173.75 69.178 76.686 128.972 152.031 129.508 152.568zM1629.444 419.36l434.912 22.255c-23.864-28.69-58.185-69.446-95.187-110.471-120.66-134.067-164.634-156.322-178.040-160.88-51.584-12.625-112.699-22.149-175.215-26.606l-8.724-0.208-2.413-1.609c-4.312 8.119-6.843 17.751-6.843 27.974 0 3.186 0.246 6.315 0.72 9.368l-0.043-0.34c0 75.077 0 160.88 2.949 172.678v8.044c0.268 2.949-4.558 50.677 28.422 59.794z"></path>
</svg>
