<svg id="Capa_1" data-name="Capa 1" xmlns="http://www.w3.org/2000/svg" viewBox="0 0 404 404"><defs><style>.cls-1{fill:#9dcb42;}.cls-2{fill:#749623;}.cls-3{fill:#ff7a5d;}.cls-4{fill:#575757;}.cls-5{fill:#ff3d00;}.cls-6{fill:#b72c21;}.cls-7{fill:#fff;}.cls-8{fill:none;}.cls-9{fill:#eceeee;}.cls-10{fill:#4bcfff;}.cls-11{fill:#00b0ff;}.cls-12{fill:#2979ff;}</style></defs><title>comparar-planes</title><rect class="cls-1" width="404" height="404"/><ellipse class="cls-2" cx="104.78" cy="341.58" rx="66.92" ry="3.15"/><path class="cls-3" d="M55.07,266.6V271H42.26s-4.45.44-4.4-4.7,13.19-6.92,14.09-5.87c0.28,0.32.29,6.26,0.29,6.26Z"/><path class="cls-3" d="M154.52,266.6V271H167.3s4.45,0.44,4.4-4.7-13.2-6.92-14.1-5.87c-0.28.32-.27,6.26-0.27,6.26Z"/><path d="M60.3,340.56a2,2,0,0,1-2,2H46.56a2,2,0,0,1-2-2V311.33a2,2,0,0,1,2-2H58.35a2,2,0,0,1,2,2v29.24h0Z"/><path class="cls-4" d="M44.6,312.67h0Z"/><path class="cls-4" d="M59.11,310v32.56c0-.11,1.75-0.91,1.75-1.89V311.9C60.85,310.93,59.11,310.13,59.11,310Z"/><path class="cls-4" d="M45.62,343.37h0Z"/><path class="cls-4" d="M45.62,310.76h0Z"/><path class="cls-4" d="M57.42,343.37h0Z"/><path class="cls-4" d="M57.42,310.76h0Z"/><path d="M166.73,311.33a2,2,0,0,0-1.95-2H153a2,2,0,0,0-2,2v29.24a2,2,0,0,0,2,2h11.79a2,2,0,0,0,1.95-2V311.33h0Z"/><path class="cls-4" d="M166.52,311.9v28.79c0,1,0,1.79-1.75,1.89V310C166.52,310.13,166.52,310.93,166.52,311.9Z"/><path class="cls-4" d="M152.78,310v32.56c0-.11-1.75-0.91-1.75-1.89V311.9C151,310.93,152.78,310.13,152.78,310Z"/><path class="cls-4" d="M163.94,343.37h0Z"/><path class="cls-4" d="M163.94,310.76h0Z"/><path class="cls-4" d="M152.14,343.37h0Z"/><path class="cls-4" d="M152.14,310.76h0Z"/><path class="cls-5" d="M157.5,266.7l-2.13-.07h0s-11.36-23.46-15-24.85-35.6-1-35.6-1-32-.33-35.6,1.05-15,24.88-15,24.89L52,266.8l-14.2-.41c0,5.13,4.4,4.7,4.4,4.7H53c-3.16,5.23-9,15.11-10.21,19.69-1.65,6.34.94,30.57,0.94,30.57s0,5.12,1,6.37a1.92,1.92,0,0,0,1.92,1s-1.15,3.77,1.64,4.23c10.36,1.73,55.93,1.57,55.93,1.57h1.19s45.53,0.18,55.89-1.56c2.79-.46,1.65-4.22,1.65-4.22a1.9,1.9,0,0,0,1.93-1c1-1.25,1-6.36,1-6.36s2.59-24.32.93-30.65c-1.2-4.57-7-14.41-10.22-19.65H167.3s4.46,0.43,4.4-4.7Zm-52.72,1.85-15.41-.18h30.82Zm50-.21h0l0.09-.25v0.42Z"/><path class="cls-6" d="M45.62,306.09s9.07,1.54,14.65,6.8S66,323.26,66,323.26s-18.49-1.9-19-3.07c-2.22-4.66-1.35-13.92-1.35-13.92"/><path class="cls-6" d="M45.15,324.65l34.61,1.27L47,322.27s-1.88.12-2,1.27C45,323.85,44.93,324.7,45.15,324.65Z"/><circle class="cls-7" cx="54.4" cy="315.26" r="5.04"/><path class="cls-6" d="M70.6,299.14l3.46-4.25s2.8-3.24,2.59-4.11S51.52,281.64,49.36,282s-3.44,11.45-3.09,12.39,9.34,3.87,12.1,4Z"/><circle class="cls-7" cx="56.7" cy="291.08" r="5.04"/><circle class="cls-7" cx="67.06" cy="293.38" r="4.55"/><line class="cls-8" x1="104.23" y1="335.73" x2="104.23" y2="335.73"/><path class="cls-6" d="M163.05,329.13l-0.11-.55L138,330.22l-3.55-2L103,329.1h0l-29.62-.9-2.24,2-24.73-1.64v0.55s-0.42,2.12.57,3.14A11,11,0,0,0,49.44,334l54.78,0.79,55.6-1.16a5.79,5.79,0,0,0,2.53-1.37C163.35,331.28,163.05,329.13,163.05,329.13Z"/><path class="cls-3" d="M104.78,268.32l-49.7-.58s9.12,16,25.06,17.86c8.91,1,24.44,1.17,24.64,1.17h0c0.19,0,15.74-.15,24.62-1.17,16-1.83,25.07-17.79,25.07-17.79Z"/><path class="cls-6" d="M127.61,293.67H81.94c-1.19,0-5,7.45-5,8.43a1.89,1.89,0,0,0,1.22,1.41l25.76,0.23h0l26.63-.45s1.8-.16,1.85-1.12S128.81,293.67,127.61,293.67Z"/><path class="cls-6" d="M104.79,309.37l-27.51-.08s0.38,6.38.78,7.9c0.26,0.94,2.27,7.53,9.07,8.55S104.78,327,104.78,327s10.86-.26,17.65-1.27,8.82-7.54,9.07-8.48c0.39-1.53.78-7.88,0.78-7.88H104.79Z"/><path class="cls-7" d="M141.84,245.79c-3-1.53-36.59-2.23-37.06-2.24h0c-0.48,0-34.08.71-37.05,2.24s-11.06,21.39-11.06,21.39H152.9S144.84,247.33,141.84,245.79Z"/><path class="cls-9" d="M104.71,243.56h0Z"/><path class="cls-9" d="M104.74,243.56c-1.13,0-34.08.72-37,2.23s-11.06,21.38-11.06,21.38h47.84l37.21-21.38C138.74,244.27,105.88,243.57,104.74,243.56Z"/><path class="cls-6" d="M163.94,306.09s-9.07,1.54-14.64,6.8-5.76,10.36-5.76,10.36,18.5-1.9,19-3.07c2.22-4.66,1.34-13.92,1.34-13.92"/><path class="cls-6" d="M164.41,324.65l-34.61,1.27,32.75-3.65s1.88,0.12,2,1.27C164.53,323.85,164.63,324.7,164.41,324.65Z"/><circle class="cls-7" cx="155.16" cy="315.26" r="5.04"/><path class="cls-6" d="M139,299.14l-3.45-4.25s-2.81-3.24-2.59-4.11,25-9.14,27.25-8.78,3.44,11.45,3.09,12.39-9.34,3.87-12.09,4Z"/><circle class="cls-7" cx="152.85" cy="291.08" r="5.04"/><circle class="cls-7" cx="142.48" cy="293.38" r="4.55"/><circle class="cls-5" cx="104.16" cy="306.91" r="5.41"/><circle class="cls-9" cx="104.16" cy="306.91" r="3.64"/><ellipse class="cls-2" cx="299.22" cy="341.58" rx="66.92" ry="3.15"/><path class="cls-10" d="M348.93,266.6V271h12.81s4.45,0.44,4.4-4.7-13.19-6.92-14.09-5.87c-0.28.32-.29,6.26-0.29,6.26Z"/><path class="cls-10" d="M249.48,266.6V271H236.7s-4.45.44-4.4-4.7,13.2-6.92,14.1-5.87c0.28,0.32.27,6.26,0.27,6.26Z"/><path d="M343.7,340.56a2,2,0,0,0,2,2h11.79a2,2,0,0,0,2-2V311.33a2,2,0,0,0-2-2H345.65a2,2,0,0,0-2,2v29.24h0Z"/><path class="cls-4" d="M359.4,312.67h0Z"/><path class="cls-4" d="M344.89,310v32.56c0-.11-1.75-0.91-1.75-1.89V311.9C343.15,310.93,344.89,310.13,344.89,310Z"/><path class="cls-4" d="M358.38,343.37h0Z"/><path class="cls-4" d="M358.38,310.76h0Z"/><path class="cls-4" d="M346.58,343.37h0Z"/><path class="cls-4" d="M346.58,310.76h0Z"/><path d="M237.27,311.33a2,2,0,0,1,1.95-2H251a2,2,0,0,1,2,2v29.24a2,2,0,0,1-2,2H239.22a2,2,0,0,1-1.95-2V311.33Z"/><path class="cls-4" d="M237.48,311.9v28.79c0,1,0,1.79,1.75,1.89V310C237.48,310.13,237.48,310.93,237.48,311.9Z"/><path class="cls-4" d="M251.22,310v32.56c0-.11,1.75-0.91,1.75-1.89V311.9C253,310.93,251.22,310.13,251.22,310Z"/><path class="cls-4" d="M240.06,343.37h0Z"/><path class="cls-4" d="M240.06,310.76h0Z"/><path class="cls-4" d="M251.86,343.37h0Z"/><path class="cls-4" d="M251.86,310.76h0Z"/><path class="cls-11" d="M232.3,266.29c-0.06,5.13,4.4,4.7,4.4,4.7h10.76c-3.18,5.24-9,15.08-10.22,19.65-1.66,6.33.93,30.65,0.93,30.65s0,5.11,1,6.36a1.9,1.9,0,0,0,1.93,1s-1.15,3.76,1.65,4.22c10.36,1.74,55.89,1.56,55.89,1.56h1.19s45.57,0.16,55.93-1.57c2.79-.47,1.64-4.23,1.64-4.23a1.92,1.92,0,0,0,1.92-1c1-1.25,1-6.37,1-6.37s2.59-24.23.94-30.57C360,286.11,354.14,276.22,351,271h10.77s4.45,0.43,4.4-4.7l-14.2.41-2.12-.08s-11.36-23.48-15-24.89-35.6-1.05-35.6-1.05-32-.35-35.6,1-15,24.85-15,24.85h0l-2.13.07Zm51.51,2.08h30.82l-15.41.18Zm-34.69.13v-0.42l0.09,0.25h0Z"/><path class="cls-12" d="M358.38,306.09s-9.07,1.54-14.65,6.8S338,323.26,338,323.26s18.49-1.9,19-3.07c2.22-4.66,1.35-13.92,1.35-13.92"/><path class="cls-12" d="M358.85,324.65l-34.61,1.27L357,322.27s1.88,0.12,2,1.27C359,323.85,359.07,324.7,358.85,324.65Z"/><circle class="cls-7" cx="349.6" cy="315.26" r="5.04"/><path class="cls-12" d="M333.4,299.14l-3.46-4.25s-2.8-3.24-2.59-4.11,25.12-9.14,27.28-8.78,3.44,11.45,3.09,12.39-9.34,3.87-12.1,4Z"/><circle class="cls-7" cx="347.3" cy="291.08" r="5.04"/><circle class="cls-7" cx="336.94" cy="293.38" r="4.55"/><line class="cls-8" x1="299.77" y1="335.73" x2="299.77" y2="335.73"/><path class="cls-12" d="M240.95,329.13l0.11-.55L266,330.22l2.55-2L299,329.1h0l30.62-.9,2.74,2,25-1.64,0.13,0.55s0.48,2.12-.5,3.14a11.21,11.21,0,0,1-2.44,1.77l-54.77.79-55.59-1.16a5.79,5.79,0,0,1-2.53-1.37C240.64,331.28,240.95,329.13,240.95,329.13Z"/><path class="cls-10" d="M299.22,268.32l49.7-.58s-9.12,16-25.06,17.86c-8.91,1-24.44,1.17-24.64,1.17h0c-0.19,0-15.74-.15-24.62-1.17-16-1.83-25.07-17.79-25.07-17.79Z"/><path class="cls-12" d="M276.39,293.67h45.67c1.19,0,5,7.45,5,8.43a1.89,1.89,0,0,1-1.22,1.41l-25.76.23h0l-26.63-.45s-1.8-.16-1.85-1.12S275.19,293.67,276.39,293.67Z"/><path class="cls-12" d="M299.21,309.37l27.51-.08s-0.38,6.38-.78,7.9c-0.26.94-2.27,7.53-9.07,8.55S299.22,327,299.22,327s-10.86-.26-17.65-1.27-8.82-7.54-9.07-8.48c-0.39-1.53-.78-7.88-0.78-7.88h27.49Z"/><path class="cls-7" d="M262.16,245.79c3-1.53,36.59-2.23,37.06-2.24h0c0.48,0,34.08.71,37,2.24s11.06,21.39,11.06,21.39H251.1S259.16,247.33,262.16,245.79Z"/><path class="cls-9" d="M299.29,243.56h0Z"/><path class="cls-9" d="M299.26,243.56c1.13,0,34.08.72,37,2.23s11.06,21.38,11.06,21.38H299.51L262.3,245.79C265.26,244.27,298.12,243.57,299.26,243.56Z"/><path class="cls-12" d="M240.06,306.09s9.07,1.54,14.64,6.8,5.76,10.36,5.76,10.36-18.5-1.9-19-3.07c-2.22-4.66-1.34-13.92-1.34-13.92"/><path class="cls-12" d="M239.59,324.65l34.61,1.27-32.75-3.65s-1.88.12-2,1.27C239.47,323.85,239.37,324.7,239.59,324.65Z"/><circle class="cls-7" cx="248.84" cy="315.26" r="5.04"/><path class="cls-12" d="M265,299.14l3.45-4.25s2.81-3.24,2.59-4.11-25-9.14-27.25-8.78-3.44,11.45-3.09,12.39,9.34,3.87,12.09,4Z"/><circle class="cls-7" cx="251.15" cy="291.08" r="5.04"/><circle class="cls-7" cx="261.52" cy="293.38" r="4.55"/><circle class="cls-11" cx="299.84" cy="306.91" r="5.41"/><circle class="cls-9" cx="299.84" cy="306.91" r="3.64"/><path class="cls-7" d="M90.6,41.75l-2.48,3.1a9.84,9.84,0,0,0-7-3.2,8.88,8.88,0,0,0,0,17.75,10.42,10.42,0,0,0,7-3l2.52,2.81a14.31,14.31,0,0,1-9.75,4.14,12.77,12.77,0,0,1-13.1-12.44q0-.19,0-0.37c0-7.16,5.8-12.67,13.25-12.67A13.91,13.91,0,0,1,90.6,41.75Z"/><path class="cls-7" d="M119,50.57c0,7.2-5.83,12.78-13.35,12.78S92.33,57.77,92.33,50.57s5.83-12.71,13.35-12.71S119,43.37,119,50.57Zm-22.39,0a9,9,0,0,0,9,9h0.07a8.93,8.93,0,1,0-9-9h0Z"/><path class="cls-7" d="M146.29,63.17V44.34l-8,16.2h-2.77l-8-16.2V63.17h-4V38h5l8.31,16.74L145.21,38h5V63.2h-3.92v0Z"/><path class="cls-7" d="M166.92,38c6.33,0,10,3.13,10,8.6,0,5.69-3.64,9-10,9h-5.8v7.6h-4.25V38h10.05Zm-5.8,13.79h5.62c3.89,0,6.08-1.66,6.08-5.08s-2.2-4.9-6.08-4.9h-5.62v10Z"/><path class="cls-7" d="M183.08,57.48l-2.41,5.69h-4.43L187.37,38h4.36l11,25.2H198.2l-2.41-5.69H183.08v0Zm6.34-15L184.67,53.7h9.5Z"/><path class="cls-7" d="M217.46,55.54h-7.15v7.6h-4.25V38h10.22c6.44,0,10.15,3.13,10.15,8.6,0,4-1.87,6.88-5.22,8.17l5.65,8.42H222Zm-1.15-3.78c3.89,0,6.12-1.66,6.12-5.08s-2.23-4.9-6.12-4.9h-6v10h6v0Z"/><path class="cls-7" d="M235.68,57.48l-2.41,5.69h-4.43L240,38h4.36l11,25.2h-4.54l-2.41-5.69H235.68v0Zm6.34-15L237.26,53.7h9.5Z"/><path class="cls-7" d="M269,38c7.56,0,13,5.29,13,12.6s-5.51,12.6-13.14,12.6H258.68V38H269Zm-6.08,21.38h6.19a8.45,8.45,0,0,0,8.64-8.25q0-.25,0-0.5a8.59,8.59,0,0,0-8.35-8.82h-6.47V59.38Z"/><path class="cls-7" d="M310.19,50.57c0,7.2-5.83,12.78-13.35,12.78s-13.35-5.58-13.35-12.78,5.83-12.71,13.35-12.71S310.19,43.37,310.19,50.57Zm-22.39,0a9,9,0,0,0,9,9h0.07A8.93,8.93,0,1,0,287.8,50.57Z"/><path class="cls-7" d="M326.11,55.54H319v7.6h-4.25V38H325c6.44,0,10.15,3.13,10.15,8.6,0,4-1.87,6.88-5.22,8.17l5.65,8.42h-4.82ZM325,51.76c3.89,0,6.12-1.66,6.12-5.08s-2.23-4.9-6.12-4.9h-6v10h6v0Z"/><path class="cls-7" d="M87,100.4H84V98a5.36,5.36,0,0,1-4.86,2.5c-4,0-6.63-2.89-6.63-7.1s2.68-7,6.58-7A5.47,5.47,0,0,1,84,89V81.1h3v19.3Zm-3-6.86A4.21,4.21,0,0,0,80.13,89H79.72a4.26,4.26,0,0,0-4.27,4.25q0,0.15,0,.3a4.27,4.27,0,1,0,8.54,0h0Z"/><path class="cls-7" d="M103.67,94.62H93.22a4.21,4.21,0,0,0,4.29,3.46,5.38,5.38,0,0,0,3.9-1.61L103,98.16a7.53,7.53,0,0,1-5.72,2.34,7,7,0,1,1-.08-14C102.06,86.46,104,89.63,103.67,94.62Zm-2.6-2.18a3.55,3.55,0,0,0-3.5-3.6H97.22a3.94,3.94,0,0,0-4.06,3.59h7.91Z"/><path class="cls-7" d="M120.93,82.2c4.58,0,7.2,2.26,7.2,6.21,0,4.11-2.63,6.5-7.2,6.5h-4.19v5.49h-3.07V82.2h7.26Zm-4.19,10h4.06c2.81,0,4.39-1.2,4.39-3.67S123.61,85,120.8,85h-4.06v7.2Z"/><path class="cls-7" d="M131.12,100.4V81.1h3v19.3h-3Z"/><path class="cls-7" d="M147,98.71a5.61,5.61,0,0,1-4.58,1.82c-3,0-4.86-1.85-4.86-4.29s1.9-4.13,5.23-4.16H147V91.66c0-1.74-1.12-2.78-3.3-2.78a7.29,7.29,0,0,0-4.08,1.4l-1.22-2.08a10.13,10.13,0,0,1,6-1.74c3.56,0,5.56,1.82,5.59,4.86v9.07h-3V98.71Zm0-3.17V94.26h-3.74c-2,0-2.86.52-2.86,1.85s1,2.05,2.68,2.05c2.06,0,3.7-1.16,3.85-2.63H147Z"/><path class="cls-7" d="M167.14,91.79v8.61h-3V92.62a3.08,3.08,0,0,0-3.33-3.35A3.87,3.87,0,0,0,156.89,93v7.36h-3V86.56h3v2.65c1-1.92,2.76-2.76,5.1-2.76C165.21,86.46,167.14,88.49,167.14,91.79Z"/><path class="cls-7" d="M183.31,94.62H172.85a4.21,4.21,0,0,0,4.29,3.46,5.38,5.38,0,0,0,3.9-1.61l1.59,1.69a7.53,7.53,0,0,1-5.72,2.34,7,7,0,1,1-.08-14C181.69,86.46,183.67,89.63,183.31,94.62Zm-2.6-2.18a3.55,3.55,0,0,0-3.5-3.6h-0.35a3.94,3.94,0,0,0-4.06,3.59h7.91Z"/><path class="cls-7" d="M195.4,87.84L194.3,90a8.13,8.13,0,0,0-4-1.22c-1.17,0-2,.39-2,1.38,0,2.55,7.36,1.17,7.33,6.19,0,2.83-2.52,4.11-5.3,4.11a8.56,8.56,0,0,1-5.56-1.92l1.07-2.13a7.54,7.54,0,0,0,4.63,1.72c1.27,0,2.26-.44,2.26-1.48,0-2.83-7.28-1.25-7.25-6.24,0-2.81,2.44-4,5.1-4A8.75,8.75,0,0,1,195.4,87.84Z"/><path class="cls-7" d="M218.54,100.4h-3V98a5.36,5.36,0,0,1-4.86,2.5c-4,0-6.63-2.89-6.63-7.1s2.68-7,6.58-7a5.47,5.47,0,0,1,4.92,2.6V81.1h3v19.3h0Zm-3-6.86A4.21,4.21,0,0,0,211.67,89h-0.36A4.26,4.26,0,0,0,207,93.2q0,0.16,0,.33a4.28,4.28,0,0,0,8.55,0h0Z"/><path class="cls-7" d="M235.25,94.62H224.8a4.21,4.21,0,0,0,4.29,3.46,5.38,5.38,0,0,0,3.9-1.61l1.59,1.69a7.52,7.52,0,0,1-5.72,2.34,7,7,0,1,1-.08-14C233.64,86.46,235.62,89.63,235.25,94.62Zm-2.6-2.18a3.55,3.55,0,0,0-3.5-3.6H228.8a3.94,3.94,0,0,0-4.06,3.59h7.91Z"/><path class="cls-7" d="M247.84,96.29l-1.74,4.11h-3.2l8-18.2H254l8,18.2h-3.28L257,96.29h-9.16Zm4.58-10.82L249,93.56h6.86Z"/><path class="cls-7" d="M277.66,91.79v8.61h-3V92.62a3.08,3.08,0,0,0-3.33-3.35c-2.47,0-4,1.87-4,4.32v6.81h-3V81.1h3v8.16c1-2,2.76-2.81,5.12-2.81C275.74,86.46,277.66,88.49,277.66,91.79Z"/><path class="cls-7" d="M294.79,93.48c0,4.16-2.94,7-7.2,7s-7.23-2.86-7.23-7,2.94-7,7.23-7S294.79,89.29,294.79,93.48Zm-11.44,0A4.23,4.23,0,1,0,287.59,89a4.17,4.17,0,0,0-4.24,4.51v0Z"/><path class="cls-7" d="M300.9,89.32a5,5,0,0,1,4.78-2.86v2.86a4.19,4.19,0,0,0-4.75,3.55q0,0.15,0,.3v7.23h-3V86.56h3v2.76Z"/><path class="cls-7" d="M311.15,89.32a5,5,0,0,1,4.78-2.86v2.86a4.19,4.19,0,0,0-4.75,3.55q0,0.15,0,.3v7.23h-3V86.56h3v2.76Z"/><path class="cls-7" d="M331.53,93.48c0,4.16-2.94,7-7.2,7s-7.23-2.86-7.23-7,2.94-7,7.23-7S331.53,89.29,331.53,93.48Zm-11.44,0A4.23,4.23,0,1,0,324.33,89a4.17,4.17,0,0,0-4.24,4.51v0Z"/><polygon class="cls-7" points="161.87 161.61 179.15 144.33 179.15 153.18 242.13 153.18 242.13 170.86 179.15 170.86 179.15 178.89 161.87 161.61"/><polygon class="cls-7" points="242.13 197.72 224.85 180.44 224.85 189.29 161.87 189.29 161.87 206.97 224.85 206.97 224.85 215 242.13 197.72"/></svg>