<svg id="Capa_1" data-name="Capa 1" xmlns="http://www.w3.org/2000/svg" viewBox="0 0 404 404.19"><defs><style>.cls-1{fill:#2979ff;}.cls-2{fill:#fff;}.cls-3{fill:#ffe376;stroke-miterlimit:10;}.cls-3,.cls-8{stroke:#fbc02d;}.cls-4{fill:#f5c59f;}.cls-5{fill:#fdd5b6;}.cls-6{fill:#fbc02d;}.cls-7{fill:#35495e;}.cls-8{fill:none;stroke-linecap:round;stroke-linejoin:round;stroke-dasharray:1.84 3.68 1.84 3.68 1.84 3.68;}.cls-9{fill:#0a5acc;}.cls-10{fill:#575757;}.cls-11{fill:#8e1610;}.cls-12{fill:#ff3d00;}.cls-13{fill:#b72c21;}.cls-14{fill:#ff7a5d;}.cls-15{fill:#eceeee;}.cls-16{fill:#edefef;}</style></defs><title>planes-de-ahorro-economicos</title><rect class="cls-1" y="0.19" width="404" height="404"/><path class="cls-2" d="M228.77,211.49a0.87,0.87,0,0,0,1-.7L235.38,186a1,1,0,0,0-.78-1.13,0.93,0.93,0,0,0-1.13.68v0l-5.3,24.87A0.87,0.87,0,0,0,228.77,211.49Z" transform="translate(0 0.19)"/><path class="cls-2" d="M221.3,210a0.87,0.87,0,0,0,1-.77h0l3.13-19a0.92,0.92,0,1,0-1.83-.26l-2.87,19a0.81,0.81,0,0,0,.52,1Z" transform="translate(0 0.19)"/><path class="cls-2" d="M235.9,213.23a0.92,0.92,0,0,0,1-.7l5.39-18.43a0.87,0.87,0,0,0-.56-1.1l-0.14,0a0.87,0.87,0,0,0-1.11.53l0,0.08-5.13,18.52a0.87,0.87,0,0,0,.5,1.12h0Z" transform="translate(0 0.19)"/><path class="cls-2" d="M271.2,229.92a0.91,0.91,0,0,0,1.22-.35l11-15.65a1,1,0,0,0-.26-1.3,1,1,0,0,0-1.3.26L271,228.7A0.87,0.87,0,0,0,271.2,229.92Z" transform="translate(0 0.19)"/><path class="cls-2" d="M282.85,239.22a0.87,0.87,0,0,0,1.22-.17l13-14.17a0.92,0.92,0,1,0-1.39-1.22h0L282.85,238A0.92,0.92,0,0,0,282.85,239.22Z" transform="translate(0 0.19)"/><path class="cls-2" d="M175,211.58a0.87,0.87,0,0,0,.61-1l-5.48-24.87A0.93,0.93,0,0,0,169,185h0a1,1,0,0,0-.78,1.13L174,210.88a0.77,0.77,0,0,0,.81.72Z" transform="translate(0 0.19)"/><path class="cls-2" d="M182.08,210.19a0.87,0.87,0,0,0,.61-1l-3-19a0.87,0.87,0,0,0-.94-0.8l-0.11,0a1,1,0,0,0-.78,1l3.22,19a0.87,0.87,0,0,0,.95.78h0Z" transform="translate(0 0.19)"/><path class="cls-2" d="M120.79,239.75a0.87,0.87,0,0,0,0-1.22l-12.87-14.26a0.92,0.92,0,1,0-1.39,1.22l13,14.09a0.79,0.79,0,0,0,1.09.27Z" transform="translate(0 0.19)"/><path class="cls-2" d="M132.35,230.44a0.92,0.92,0,0,0,.17-1.22l-11-15.74a0.94,0.94,0,0,0-1.57,1l11.13,15.65a0.87,0.87,0,0,0,1.2.27h0Z" transform="translate(0 0.19)"/><circle class="cls-3" cx="207.35" cy="223.35" r="18.26"/><path class="cls-4" d="M251.28,134.66c-1.44-1.8-10.8-4.41-14-5s-20.71,6-23.32,6.4c-2.46.42-22.31-10.16-24.63-11.41l-0.22-.12-13.23,5.93-31,17.28,0.63,1.43,43.24-13.82,34.63,11.87,13.42-6.93,8.73,1.17c6.12,5.13,12.07,3.24,12.07,3.24S252.73,136.46,251.28,134.66Z" transform="translate(0 0.19)"/><path class="cls-5" d="M145.39,149s14.88,33.93,17.46,39.49,17.83,24.82,19.87,35.57c0.7,3.67,15.11-8.87,3.58-31.4,0,0,2.55-14,26.23-6.32,7.7,2.49,11.13,15.06,13.71,17.84s0,8.15,0,8.15-3,10.73-.79,11.72,7.55-4.37,7.55-4.37,7.75-14.11,7-17.29-10.73-24-10.73-24,18.08,7.35,21.07,11.13,8.35,16.3,11.72,18.09,8.55,0.4,8.55.4-8.55-26.83-10.93-29.61S235.39,164,235.39,164l13.91,0.2L259.63,171s8.38,12.47,15.9,11.72c3.23-.32,2.19-2.78,2.19-2.78s-5-10.73-8.94-15.3-8.55-13.12-11.72-13.51-25-4.57-29.41-4.57-38.19-12.12-38.19-12.12Z" transform="translate(0 0.19)"/><path class="cls-6" d="M206.35,229.93v-6a7.88,7.88,0,0,1-4.11-2.42,6.08,6.08,0,0,1-1.31-3.94,5.58,5.58,0,0,1,1.48-3.94,6,6,0,0,1,3.94-1.84v-1.42h2.08v1.42a6.15,6.15,0,0,1,3.62,1.55,6,6,0,0,1,1.72,3.43l-3.62.47a2.92,2.92,0,0,0-1.72-2.29v5.6q3.43,0.93,4.68,2.41a5.7,5.7,0,0,1,1.25,3.8,6.36,6.36,0,0,1-1.57,4.36,6.89,6.89,0,0,1-4.36,2.18V236h-2.08v-2.6a6.63,6.63,0,0,1-4-1.85,7.59,7.59,0,0,1-2-4.36l3.74-.4a4.75,4.75,0,0,0,.86,2A3.91,3.91,0,0,0,206.35,229.93Zm0-15a2.68,2.68,0,0,0-1.34,1,2.51,2.51,0,0,0-.5,1.52,2.4,2.4,0,0,0,.46,1.41,3.17,3.17,0,0,0,1.39,1.05v-5Zm2.08,15.23a2.92,2.92,0,0,0,1.75-1,2.8,2.8,0,0,0,.67-1.87,2.54,2.54,0,0,0-.57-1.65,3.61,3.61,0,0,0-1.85-1.07v5.58Z" transform="translate(0 0.19)"/><polygon class="cls-7" points="143.94 148.39 194.02 126.33 194.02 0 142.35 0 143.94 148.39"/><circle class="cls-8" cx="207.35" cy="223.35" r="15.8"/><path class="cls-2" d="M310.24,276.52a0.87,0.87,0,0,0,1.17.37l0,0,23.3-10.26a1,1,0,0,0,.45-1.28v0a1,1,0,0,0-1.3-.52l-23.13,10.61a0.87,0.87,0,0,0-.53,1.11v0Z" transform="translate(0 0.19)"/><path class="cls-2" d="M306.85,269.74a0.91,0.91,0,0,0,1.22.26l17-9a1,1,0,0,0,.35-1.3,1.08,1.08,0,0,0-1.3-.43l-16.87,9.22A1.16,1.16,0,0,0,306.85,269.74Z" transform="translate(0 0.19)"/><path class="cls-2" d="M312.94,283.13a0.87,0.87,0,0,0,1.13.43l18-6.61a0.87,0.87,0,0,0,.52-1.22,0.94,0.94,0,0,0-1.17-.62h0L313.46,282A1.28,1.28,0,0,0,312.94,283.13Z" transform="translate(0 0.19)"/><path class="cls-2" d="M277.29,234.44a1,1,0,0,0,1.22-.17l16-19.82a1,1,0,0,0-.16-1.38h0a0.94,0.94,0,0,0-1.3.09l-15.74,20A1,1,0,0,0,277.29,234.44Z" transform="translate(0 0.19)"/><path class="cls-2" d="M167.56,213.49a0.87,0.87,0,0,0,.53-1.11v0l-5.3-18.43a0.87,0.87,0,0,0-1.06-.63l-0.08,0a0.87,0.87,0,0,0-.63,1.06l0,0.08,5.56,18.35a0.77,0.77,0,0,0,.81.72Z" transform="translate(0 0.19)"/><path class="cls-2" d="M126.53,234.79a0.91,0.91,0,0,0,.09-1.22l-15.82-20a1,1,0,0,0-1.57,1.3h0l16.08,19.74a0.79,0.79,0,0,0,1.09.27Z" transform="translate(0 0.19)"/><path class="cls-2" d="M93.84,277a0.87,0.87,0,0,0-.5-1.12h0L70.1,265.31a1.06,1.06,0,0,0-1.3.52,1,1,0,0,0,.43,1.3l23.3,10.17a0.94,0.94,0,0,0,1.29-.32Z" transform="translate(0 0.19)"/><path class="cls-2" d="M91,284a0.8,0.8,0,0,0-.5-1l-0.11,0-17.91-6.78a0.94,0.94,0,0,0-1.2.56v0a1,1,0,0,0,.52,1.22l18.08,6.43A0.87,0.87,0,0,0,91,284Z" transform="translate(0 0.19)"/><path class="cls-2" d="M97,270.53a0.92,0.92,0,0,0-.43-1.13l-17-9a0.94,0.94,0,0,0-1.27.37l0,0.06a1,1,0,0,0,.35,1.3l17,8.78A1.08,1.08,0,0,0,97,270.53Z" transform="translate(0 0.19)"/><ellipse class="cls-9" cx="202" cy="366.11" rx="91.03" ry="4.26"/><path d="M139.32,321.54a2.77,2.77,0,0,0-2.76-2.77H119.84a2.78,2.78,0,0,0-2.78,2.77V363a2.78,2.78,0,0,0,2.78,2.77h16.72a2.77,2.77,0,0,0,2.76-2.77V321.54Z" transform="translate(0 0.19)"/><path class="cls-10" d="M120.75,323H121v42h-0.25c-1.36,0-2.75-1.73-2.75-3.13v-38C118,322.49,119.38,323,120.75,323Z" transform="translate(0 0.19)"/><path class="cls-10" d="M138,323.89v38c0,1.4-1,3.13-2.36,3.13H134V323h1.64C137,323,138,322.49,138,323.89Z" transform="translate(0 0.19)"/><path d="M286.48,321.54a2.77,2.77,0,0,0-2.76-2.77H267a2.78,2.78,0,0,0-2.78,2.77V363a2.78,2.78,0,0,0,2.78,2.77h16.72a2.77,2.77,0,0,0,2.76-2.77V321.54Z" transform="translate(0 0.19)"/><path class="cls-10" d="M267.91,323H269v42h-1.09c-1.36,0-1.91-1.73-1.91-3.13v-38C266,322.49,266.55,323,267.91,323Z" transform="translate(0 0.19)"/><path class="cls-10" d="M285,323.89v38c0,1.4-.83,3.13-2.2,3.13H282V323h0.8C284.17,323,285,322.49,285,323.89Z" transform="translate(0 0.19)"/><path class="cls-10" d="M134.57,367h-0.32a2.36,2.36,0,0,0,.32,0v0Z" transform="translate(0 0.19)"/><path class="cls-10" d="M134.57,320.74v0a2.2,2.2,0,0,0-.32,0h0.32Z" transform="translate(0 0.19)"/><path class="cls-10" d="M117.84,367v0a2.16,2.16,0,0,0,.31,0h-0.31Z" transform="translate(0 0.19)"/><path class="cls-10" d="M117.84,320.74h0.31a1.68,1.68,0,0,0-.31,0v0Z" transform="translate(0 0.19)"/><path class="cls-11" d="M201.82,349.11l-71,0,4,5.83a2.7,2.7,0,0,0,2.35,1.1h24.92a2.13,2.13,0,0,0,1.56-.48l0-.19a4.4,4.4,0,0,1,2.94-1.34H237a4.5,4.5,0,0,1,2.94,1.42h0a2.22,2.22,0,0,0,1.56.59h24.92a2.7,2.7,0,0,0,2.35-1.1l4-5.9Z" transform="translate(0 0.19)"/><path class="cls-12" d="M287.18,304.45c-1.58-9.68-5.32-19.75-11.06-25.29a2.11,2.11,0,0,1,0-3.07,4.9,4.9,0,0,1,.8-0.6,2.17,2.17,0,0,0,1-2.34l0-.16a2.13,2.13,0,0,0-3.13-1.39,9.29,9.29,0,0,0-1.94,1.5,2.11,2.11,0,0,1-3.41-.51l-1.21-2.43-0.05-.12L256.68,243l-0.09-.19c-2.29-4.27-4.58-7.43-11.12-8.14l-46-2.71-41.13,2.71c-6.56.71-8.84,4-11.14,8.27a0.54,0.54,0,0,0,0,.05l-11.52,27.12,0,0L133.75,274a1.08,1.08,0,0,1-1.83.18,9.34,9.34,0,0,0-2.84-2.54A2.13,2.13,0,0,0,126,273l0,0.16a2.17,2.17,0,0,0,1,2.34,4.91,4.91,0,0,1,.8.6,2.11,2.11,0,0,1,0,3.07c-5.74,5.54-9.47,15.6-11.06,25.29-0.81,5,2.63,27.26,6.66,38.15,2.39,6.46,4.26,6.59,9,6.91L200.77,351h2.34l68.45-1.48c4.71-.32,6.58-0.38,9-6.85C284.55,331.78,288,309.44,287.18,304.45Z" transform="translate(0 0.19)"/><circle class="cls-2" cx="138.52" cy="330.93" r="5.27"/><path class="cls-2" d="M127.42,289.37c2.65-5.24,8.66-7.53,13.42-5.12s6.47,8.61,3.82,13.85-9.29,8.77-14,6.36S124.77,294.61,127.42,289.37Z" transform="translate(0 0.19)"/><path class="cls-13" d="M126.47,288.8c3-5.84,9.65-8.39,15-5.71s7.21,9.6,4.26,15.43-10.35,9.78-15.66,7.09S123.52,294.64,126.47,288.8Z" transform="translate(0 0.19)"/><path class="cls-14" d="M112.71,269.68c0-4.39,3.71-6.88,9.34-6.88s8.57,1.9,8.57,6.3-3.21,7.47-8.85,7.47S112.71,274.08,112.71,269.68Z" transform="translate(0 0.19)"/><circle class="cls-2" cx="264.44" cy="330.93" r="5.27"/><path class="cls-14" d="M263.67,342H141.19c-8.42,0-17.19-8-17.19-16.24v-3.31c0-2.34,4-2.45,6-2.45H274.86c2.69,0,3.14,1,3.14,2.45v3.31C278,334.61,271.51,342,263.67,342ZM130,322c-1.63,0-4-.42-4,0.45v3.31C126,333,133.77,340,141.19,340H263.67c7.75,0,12.33-7.32,12.33-14.24v-3.31c0-1.36-.05-0.45-1.14-0.45H130Z" transform="translate(0 0.19)"/><path class="cls-2" d="M275.54,289.37c-2.65-5.24-8.66-7.53-13.42-5.12s-6.47,8.61-3.82,13.85,9.29,8.77,14,6.36S278.2,294.61,275.54,289.37Z" transform="translate(0 0.19)"/><path class="cls-13" d="M276.5,288.8c-3-5.84-9.65-8.39-15-5.71s-7.21,9.6-4.26,15.43,10.35,9.78,15.66,7.09S279.45,294.64,276.5,288.8Z" transform="translate(0 0.19)"/><path class="cls-13" d="M236,294H167.73c-10.61,0-18.73,8.75-18.73,19.35V314H255v-0.65A19.14,19.14,0,0,0,236,294Z" transform="translate(0 0.19)"/><path class="cls-13" d="M202.07,327H152.9c0,11,8.6,19,19.21,19h59.44c10.61,0,19.21-8,19.21-19H202.07Z" transform="translate(0 0.19)"/><path class="cls-14" d="M290.25,269.68c0-4.39-3.71-6.88-9.34-6.88s-8.57,1.9-8.57,6.3,3.21,7.47,8.85,7.47S290.25,274.08,290.25,269.68Z" transform="translate(0 0.19)"/><path class="cls-2" d="M265.59,273.07l-11.42-26.89c-0.09-.22-0.2-0.44-0.31-0.65-2.37-4.37-4.8-7.71-12-8.16l-41.59-1.11h-0.41l-38.17,1.09c-7.19.46-9.59,3.8-11.95,8.17-0.11.21-.22,0.43-0.31,0.65L138,273.07a1.17,1.17,0,0,0,1.08,1.71h125.4A1.16,1.16,0,0,0,265.59,273.07Z" transform="translate(0 0.19)"/><path class="cls-15" d="M241.87,237.37l-41.59-1.11h-0.41l-38.17,1.09c-7.19.46-9.59,3.8-11.95,8.17-0.11.21-.22,0.43-0.31,0.65L138,273.07a1.17,1.17,0,0,0,1.08,1.71h59.79l55-29.25C251.5,241.16,249.07,237.83,241.87,237.37Z" transform="translate(0 0.19)"/><path class="cls-2" d="M128.78,290.15c2.23-4.4,7.28-6.33,11.28-4.3s5.44,7.24,3.21,11.64-7.81,7.37-11.81,5.35S126.55,294.55,128.78,290.15Z" transform="translate(0 0.19)"/><path class="cls-2" d="M274.18,290.15c-2.23-4.4-7.28-6.33-11.28-4.3s-5.44,7.24-3.21,11.64,7.81,7.37,11.81,5.35S276.41,294.55,274.18,290.15Z" transform="translate(0 0.19)"/><circle class="cls-12" cx="201.82" cy="320.3" r="10.63"/><circle class="cls-15" cx="201.82" cy="320.3" r="5.86"/><path class="cls-12" d="M112.71,269.68c0,4.39,3.43,6.88,9.06,6.88s8.85-3.08,8.85-7.47Z" transform="translate(0 0.19)"/><path class="cls-12" d="M272.34,269.1c0,4.39,3.21,7.47,8.85,7.47s9.06-2.49,9.06-6.88Z" transform="translate(0 0.19)"/><path class="cls-14" d="M139.4,276.48l5.1,4a38.6,38.6,0,0,0,23.76,8.35c18,0.1,49.47.09,65.72,0a36.49,36.49,0,0,0,18.84-5.38l11.43-7Z" transform="translate(0 0.19)"/><path class="cls-16" d="M104.42,100.31h-4.5V98.46a5.07,5.07,0,0,1-4.21,2c-4,0-6.55-2.91-6.55-7.25s2.57-7.12,6.45-7.12a5.2,5.2,0,0,1,4.32,2V81h4.5v19.29Zm-4.5-7c0-2.16-1.25-3.64-3.12-3.64s-3.12,1.48-3.15,3.64S94.93,97,96.81,97,99.93,95.5,99.93,93.34Z" transform="translate(0 0.19)"/><path class="cls-16" d="M121.35,94.51H111.5a3.24,3.24,0,0,0,3.3,2.6,4.74,4.74,0,0,0,3.35-1.43L120.52,98a8.05,8.05,0,0,1-6.11,2.47c-4.58,0-7.44-2.86-7.44-7.12s3-7.2,7.31-7.2C119.22,86.14,121.66,89.39,121.35,94.51ZM117,92.09a2.62,2.62,0,0,0-2.7-2.83,3,3,0,0,0-2.91,2.83H117Z" transform="translate(0 0.19)"/><path class="cls-16" d="M138.87,99.55a7.63,7.63,0,0,1-3.74,1c-2.7,0-4.65-1.53-4.65-4.45V89.88h-2V86.94h2V83h4.47v3.87h3.67v3h-3.67v5.49c0,1.09.47,1.56,1.3,1.53a4.86,4.86,0,0,0,1.74-.47Z" transform="translate(0 0.19)"/><path class="cls-16" d="M155.2,93.29c0,4.32-3.07,7.18-7.64,7.18s-7.67-2.86-7.67-7.18,3.07-7.15,7.67-7.15S155.2,89,155.2,93.29Zm-10.79.05c0,2.18,1.27,3.64,3.15,3.64s3.12-1.46,3.12-3.64-1.27-3.64-3.12-3.64S144.41,91.18,144.41,93.34Z" transform="translate(0 0.19)"/><path class="cls-16" d="M171.74,100.31h-4.5V98.46a5.07,5.07,0,0,1-4.21,2c-4,0-6.55-2.91-6.55-7.25s2.57-7.12,6.45-7.12a5.2,5.2,0,0,1,4.32,2V81h4.5v19.29Zm-4.5-7c0-2.16-1.25-3.64-3.12-3.64S161,91.18,161,93.34,162.25,97,164.12,97,167.24,95.5,167.24,93.34Z" transform="translate(0 0.19)"/><path class="cls-16" d="M189.6,93.29c0,4.32-3.07,7.18-7.64,7.18s-7.67-2.86-7.67-7.18,3.07-7.15,7.67-7.15S189.6,89,189.6,93.29Zm-10.79.05c0,2.18,1.27,3.64,3.15,3.64s3.12-1.46,3.12-3.64S183.8,89.7,182,89.7,178.81,91.18,178.81,93.34Z" transform="translate(0 0.19)"/><path class="cls-16" d="M202.81,87.67l-1.53,2.91a10.08,10.08,0,0,0-4.42-1.4c-0.81,0-1.38.31-1.38,1,0,1.92,7.38,1,7.36,5.88,0,2.89-2.52,4.47-5.9,4.47a10.37,10.37,0,0,1-6.29-2l1.43-2.86a9,9,0,0,0,5,1.74c0.88,0,1.53-.31,1.53-1,0-2.05-7.25-1-7.23-5.9,0-2.89,2.44-4.45,5.69-4.45A11.47,11.47,0,0,1,202.81,87.67Z" transform="translate(0 0.19)"/><path class="cls-16" d="M211.52,100.31V81H216v19.29h-4.5Z" transform="translate(0 0.19)"/><path class="cls-16" d="M233.88,93.29c0,4.32-3.07,7.18-7.64,7.18s-7.67-2.86-7.67-7.18,3.07-7.15,7.67-7.15S233.88,89,233.88,93.29Zm-10.79.05c0,2.18,1.27,3.64,3.15,3.64s3.12-1.46,3.12-3.64-1.27-3.64-3.12-3.64S223.09,91.18,223.09,93.34Z" transform="translate(0 0.19)"/><path class="cls-16" d="M247.08,87.67l-1.53,2.91a10.08,10.08,0,0,0-4.42-1.4c-0.81,0-1.38.31-1.38,1,0,1.92,7.38,1,7.36,5.88,0,2.89-2.52,4.47-5.9,4.47a10.37,10.37,0,0,1-6.29-2l1.43-2.86a9,9,0,0,0,5,1.74c0.88,0,1.53-.31,1.53-1,0-2.05-7.25-1-7.23-5.9,0-2.89,2.44-4.45,5.69-4.45A11.47,11.47,0,0,1,247.08,87.67Z" transform="translate(0 0.19)"/><path class="cls-16" d="M271.06,91.18c0,6-2.89,9.26-8,9.26s-8.09-3.3-8.09-9.26S257.82,82,263,82,271.06,85.25,271.06,91.18Zm-11.36,0c0,4.16,1,5.88,3.33,5.88s3.3-1.72,3.3-5.88-1-5.85-3.3-5.85S259.69,87,259.69,91.18Z" transform="translate(0 0.19)"/><path class="cls-16" d="M278.57,96.48v3.82h-4.5V81h4.5V91.21l4.63-4.91h5.1l-5.15,5.38,5.3,8.63h-5.33l-3-5.41Z" transform="translate(0 0.19)"/><path class="cls-16" d="M314.08,91.47v8.84h-4.47V92.71A2.37,2.37,0,0,0,307.2,90c-1.69.05-2.73,1.43-2.73,3.33v6.94H300V92.71c0-1.66-.91-2.68-2.39-2.68-1.72.05-2.78,1.43-2.78,3.33v6.94h-4.47v-14h4.47v2.31a5.09,5.09,0,0,1,4.63-2.52,4.69,4.69,0,0,1,4.68,3.17A5.09,5.09,0,0,1,309,86.08C312.11,86.08,314.08,88.19,314.08,91.47Z" transform="translate(0 0.19)"/><path class="cls-2" d="M43.84,42C49,42,52,44.53,52,49c0,4.64-3,7.3-8.17,7.3H38.37V62.9H36V42h7.87ZM38.37,54h5.39c3.77,0,6-1.68,6-4.94s-2.18-4.79-6-4.79H38.37V54Z" transform="translate(0 0.19)"/><path class="cls-2" d="M67.57,60.63V62.9H56V42h2.39V60.63h9.19Z" transform="translate(0 0.19)"/><path class="cls-2" d="M73.53,57.6l-2.33,5.3H68.65L78,42h2.48L89.9,62.9h-2.6L85,57.6H73.53Zm5.69-12.93L74.55,55.3h9.4Z" transform="translate(0 0.19)"/><path class="cls-2" d="M108.15,62.9L95.58,46.08V62.9H93.19V42h2.48L108.24,58.8V42h2.36V62.9h-2.45Z" transform="translate(0 0.19)"/><path class="cls-2" d="M119.37,44.26v6.88h10.56v2.3H119.37v7.18h12.21V62.9H117V42h14.21v2.3H119.37Z" transform="translate(0 0.19)"/><path class="cls-2" d="M149.33,43.81l-1,2.24a10.82,10.82,0,0,0-5.78-1.77c-2.69,0-4.46,1-4.46,2.78,0,5.39,11.79,2.57,11.76,10.17,0,3.5-3.08,5.75-7.57,5.75a12,12,0,0,1-8-3.2l1.08-2.15a10.42,10.42,0,0,0,7,3c3,0,4.91-1.23,4.91-3.23,0-5.51-11.76-2.57-11.76-10.08,0-3.29,2.9-5.42,7.24-5.42A12.4,12.4,0,0,1,149.33,43.81Z" transform="translate(0 0.19)"/><path class="cls-2" d="M165.94,46.14V50.3h10v4.19h-10v4.22h11.4V62.9H160.61V42H177v4.19H165.94Z" transform="translate(0 0.19)"/><path class="cls-2" d="M199,45.31L196,49a7.17,7.17,0,0,0-5.27-2.72,6.13,6.13,0,0,0,0,12.24A7.85,7.85,0,0,0,196,56l3.11,3.29a12.65,12.65,0,0,1-8.65,3.83,10.64,10.64,0,0,1-11-10.77c0-6,4.82-10.59,11.19-10.59A12.16,12.16,0,0,1,199,45.31Z" transform="translate(0 0.19)"/><path class="cls-2" d="M222.41,52.4c0,6.1-4.85,10.74-11.34,10.74s-11.31-4.61-11.31-10.74,4.85-10.62,11.31-10.62S222.41,46.32,222.41,52.4Zm-17.21,0a6.09,6.09,0,0,0,5.92,6.25,6,6,0,0,0,5.8-6.25,5.92,5.92,0,0,0-5.8-6.19A6,6,0,0,0,205.2,52.43Z" transform="translate(0 0.19)"/><path class="cls-2" d="M239.85,62.9L230.22,50V62.9h-5V42h4.7l9.67,12.93V42h5V62.9h-4.7Z" transform="translate(0 0.19)"/><path class="cls-2" d="M270,52.4c0,6.1-4.85,10.74-11.34,10.74s-11.31-4.61-11.31-10.74,4.85-10.62,11.31-10.62S270,46.32,270,52.4Zm-17.21,0a6.09,6.09,0,0,0,5.92,6.25,6,6,0,0,0,5.8-6.25,5.92,5.92,0,0,0-5.8-6.19A6,6,0,0,0,252.81,52.43Zm7-12.3h-4l3.17-5,4.67,1.65Z" transform="translate(0 0.19)"/><path class="cls-2" d="M291.15,62.9l0-13.61-5,11.52h-3.47l-5-11.52V62.9h-4.76v-21h5.83l5.68,12.48L290,41.92h5.8v21h-4.7Z" transform="translate(0 0.19)"/><path class="cls-2" d="M300.07,62.9V42h5.33V62.9h-5.33Z" transform="translate(0 0.19)"/><path class="cls-2" d="M327.84,45.31L324.75,49a7.17,7.17,0,0,0-5.27-2.72,6.13,6.13,0,0,0,0,12.24A7.85,7.85,0,0,0,324.75,56l3.11,3.29a12.65,12.65,0,0,1-8.65,3.83,10.64,10.64,0,0,1-11-10.77c0-6,4.82-10.59,11.19-10.59A12.16,12.16,0,0,1,327.84,45.31Z" transform="translate(0 0.19)"/><path class="cls-2" d="M351.21,52.4c0,6.1-4.85,10.74-11.34,10.74s-11.31-4.61-11.31-10.74,4.85-10.62,11.31-10.62S351.21,46.32,351.21,52.4Zm-17.21,0a6.09,6.09,0,0,0,5.92,6.25,6,6,0,0,0,5.8-6.25,5.92,5.92,0,0,0-5.8-6.19A6,6,0,0,0,334,52.43Z" transform="translate(0 0.19)"/><path class="cls-2" d="M370.33,44l-2,4.16a15.61,15.61,0,0,0-6.7-2.18c-1.38,0-2.3.51-2.3,1.53,0,3.62,11.07,1.56,11.07,9.13,0,4.19-3.71,6.4-8.38,6.4a15.62,15.62,0,0,1-9.58-3.35l2.06-4.1a13.06,13.06,0,0,0,7.57,3.14c1.68,0,2.72-.63,2.72-1.83,0-3.71-11.07-1.5-11.07-8.92,0-3.86,3.32-6.31,8.35-6.31A15.72,15.72,0,0,1,370.33,44Z" transform="translate(0 0.19)"/></svg>