<svg id="Capa_1" data-name="Capa 1" xmlns="http://www.w3.org/2000/svg" viewBox="0 0 404 404"><defs><style>.cls-1{fill:#2979ff;}.cls-2{fill:#0a5acc;}.cls-3{fill:#fff;}.cls-4{fill:#010101;}.cls-5{fill:#575858;}.cls-6{fill:#8e1610;}.cls-7{fill:#ff3d00;}.cls-8{fill:#b72c21;}.cls-9{fill:#edefef;}.cls-10{fill:none;}.cls-11{fill:#ff7a5d;}</style></defs><title>planes-de-ahorro-utilitarios</title><rect class="cls-1" width="404" height="404"/><ellipse class="cls-2" cx="202" cy="356.1" rx="104.7" ry="4.9"/><path class="cls-3" d="M326.5,242.2a1,1,0,0,0,1.4.4l26.8-11.8a1.1,1.1,0,0,0,.5-1.5,1.18,1.18,0,0,0-1.5-.6l-26.6,12.2A1,1,0,0,0,326.5,242.2Z"/><path class="cls-3" d="M322.6,234.4a1.05,1.05,0,0,0,1.4.3l19.5-10.3a1.1,1.1,0,0,0,.4-1.5,1.24,1.24,0,0,0-1.5-.5L323,233A1.33,1.33,0,0,0,322.6,234.4Z"/><path class="cls-3" d="M329.6,249.8a1,1,0,0,0,1.3.5l20.7-7.6a1,1,0,0,0,.6-1.4,1.08,1.08,0,0,0-1.4-.7l-20.6,7.9A1.47,1.47,0,0,0,329.6,249.8Z"/><path class="cls-3" d="M288.6,193.8a1.09,1.09,0,0,0,1.4-.2l18.4-22.8a1.13,1.13,0,0,0-.2-1.6,1.08,1.08,0,0,0-1.5.1l-18.1,23A1.18,1.18,0,0,0,288.6,193.8Z"/><path class="cls-3" d="M281.6,188.6a1.05,1.05,0,0,0,1.4-.4l12.7-18a1.12,1.12,0,0,0-.3-1.5,1.1,1.1,0,0,0-1.5.3l-12.5,18.2A1,1,0,0,0,281.6,188.6Z"/><path class="cls-3" d="M295,199.3a1,1,0,0,0,1.4-.2l14.9-16.3a1.06,1.06,0,0,0-1.6-1.4L295,197.9A1.06,1.06,0,0,0,295,199.3Z"/><path class="cls-3" d="M232.8,167.4a1,1,0,0,0,1.1-.8l6.5-28.5a1.19,1.19,0,0,0-.9-1.3,1.07,1.07,0,0,0-1.3.8l-6.1,28.6A1,1,0,0,0,232.8,167.4Z"/><path class="cls-3" d="M224.2,165.7a1,1,0,0,0,1.1-.9l3.6-21.8a1.06,1.06,0,0,0-2.1-.3l-3.3,21.8A0.93,0.93,0,0,0,224.2,165.7Z"/><path class="cls-3" d="M241,169.4a1.06,1.06,0,0,0,1.2-.8l6.2-21.2a1,1,0,0,0-.8-1.3,1,1,0,0,0-1.3.7l-5.9,21.3A1,1,0,0,0,241,169.4Z"/><path class="cls-3" d="M170.9,167.5a1,1,0,0,0,.7-1.2l-6.3-28.6a1.07,1.07,0,0,0-1.3-.8,1.13,1.13,0,0,0-.9,1.3l6.7,28.5A0.88,0.88,0,0,0,170.9,167.5Z"/><path class="cls-3" d="M162.4,169.7a1,1,0,0,0,.6-1.3l-6.1-21.2a1,1,0,0,0-1.3-.7,1,1,0,0,0-.7,1.3l6.4,21.1A0.88,0.88,0,0,0,162.4,169.7Z"/><path class="cls-3" d="M179.1,165.9a1,1,0,0,0,.7-1.2l-3.4-21.8a1,1,0,0,0-1.2-.9,1.09,1.09,0,0,0-.9,1.2L178,165A1,1,0,0,0,179.1,165.9Z"/><path class="cls-3" d="M115.2,194.2a1.05,1.05,0,0,0,.1-1.4l-18.2-23a1.17,1.17,0,0,0-1.8,1.5L113.8,194A0.91,0.91,0,0,0,115.2,194.2Z"/><path class="cls-3" d="M108.6,199.9a1,1,0,0,0,0-1.4L93.8,182.1a1.06,1.06,0,1,0-1.6,1.4l15,16.2A0.91,0.91,0,0,0,108.6,199.9Z"/><path class="cls-3" d="M121.9,189.2a1.06,1.06,0,0,0,.2-1.4l-12.6-18.1a1.08,1.08,0,0,0-1.8,1.2l12.8,18A1,1,0,0,0,121.9,189.2Z"/><path class="cls-3" d="M77.6,242.7a1,1,0,0,0-.6-1.3L50.3,229.3a1.22,1.22,0,0,0-1.5.6,1.14,1.14,0,0,0,.5,1.5l26.8,11.7A1.08,1.08,0,0,0,77.6,242.7Z"/><path class="cls-3" d="M74.3,250.8a0.92,0.92,0,0,0-.7-1.2L53,241.8a1.08,1.08,0,0,0-1.4.7,1.11,1.11,0,0,0,.6,1.4L73,251.3A1,1,0,0,0,74.3,250.8Z"/><path class="cls-3" d="M81.2,235.3a1.06,1.06,0,0,0-.5-1.3L61.2,223.6a1.08,1.08,0,0,0-1.5.5,1.1,1.1,0,0,0,.4,1.5l19.6,10.1A1.24,1.24,0,0,0,81.2,235.3Z"/><path class="cls-4" d="M293.9,298.4a3.59,3.59,0,0,0-3.6-3.6h-22a3.67,3.67,0,0,0-3.7,3.6V353a3.69,3.69,0,0,0,3.7,3.7h22a3.61,3.61,0,0,0,3.6-3.7V298.4Z"/><path class="cls-5" d="M291.6,296.8v53.7c0,1.8,0,3.3-3.3,3.5V293.2C291.6,293.5,291.6,295,291.6,296.8Z"/><path class="cls-5" d="M269.7,293.3v60.8c0-.2-3.3-1.7-3.3-3.5V296.9C266.4,295,269.7,293.5,269.7,293.3Z"/><path class="cls-5" d="M288.7,356.6h0Z"/><path class="cls-5" d="M288.7,295.7h0Z"/><path class="cls-5" d="M266.6,356.6h0Z"/><path class="cls-5" d="M266.6,295.7H267a0.55,0.55,0,0,1-.4,0h0Z"/><path class="cls-4" d="M139.4,352.9a3.69,3.69,0,0,1-3.7,3.7H113.1a3.78,3.78,0,0,1-3.8-3.7V297a3.71,3.71,0,0,1,3.8-3.7h22.6a3.69,3.69,0,0,1,3.7,3.7v55.9Z"/><path class="cls-5" d="M137.8,296.8v53.4c0,1.8,0,3.3-3.2,3.5V293.3C137.8,293.5,137.8,295,137.8,296.8Z"/><path class="cls-5" d="M114.1,293.3v60.4c0-.2-3.2-1.7-3.2-3.5V296.8C110.9,295,114.1,293.5,114.1,293.3Z"/><path class="cls-5" d="M109.7,297.9v0Z"/><path class="cls-5" d="M111.7,356.6h0Z"/><path class="cls-5" d="M111.7,294.2h0"/><path class="cls-5" d="M134.2,356.6h0Z"/><path class="cls-5" d="M134.2,294.2h0Z"/><path class="cls-6" d="M301.8,223.3H285.9v8.35a1.53,1.53,0,0,1-1.34,1.52l-3,.38,2.12,7.08,2.2-.22v0l15.9-1.64a2.17,2.17,0,0,0,2.15-2.15V225.45A2.17,2.17,0,0,0,301.8,223.3Z"/><path class="cls-7" d="M301.4,223a3.08,3.08,0,0,1,2.6,2.5v5.2l-18,.9V223h15.4Z"/><path class="cls-6" d="M122.9,233.3l-2.77-.4a2.49,2.49,0,0,1-2.13-2.46V223H102.5a2.51,2.51,0,0,0-2.5,2.5v10.9a2,2,0,0,0,2,2.1l1.9,0.2h0.3L118,240h0l1.9,0.2Z"/><path class="cls-7" d="M101.9,223c-1.1,0-1.9,1.4-1.9,2.5v5.2l18,0.9V223H101.9Z"/><path class="cls-6" d="M279.6,311.4a4.48,4.48,0,0,1-2.9,1.6H258.2l-7.5,6H152.6l-7.5-6H126.6c-1.1,0-2.1-.9-2.9-1.6a16,16,0,0,0-3-3.5c-0.3-.2,8.5,19.2,8.5,19.2a6.77,6.77,0,0,0,6,4H268a6.64,6.64,0,0,0,6-4.1s8.8-19.1,8.5-19A18.23,18.23,0,0,0,279.6,311.4Z"/><path class="cls-7" d="M294.9,258.9l-0.5-.5h0l0.2,0.5c0,0.1,0,.2.1,0.2a54.77,54.77,0,0,0-.7-6.4,14.06,14.06,0,0,0-8-10.9c-5-11.2-21.5-47.5-27.5-49.3-1.5-.5-6.4-0.9-11.4-1.2V188h-2v-1h-2v4.2c-12-.5-28-0.9-37-1V190h-9v0.1c-9,.2-25,0.5-36,1V187h-3v1h-1v3.4c-5,.3-10.3.7-11.9,1.2-6,1.8-22.8,38.1-27.9,49.3a13.81,13.81,0,0,0-8.1,10.9c-0.4,3-.6,4.8-0.7,6.4a0.35,0.35,0,0,1,.1-0.2l0.3-.5h0l-0.3.5a5,5,0,0,0-.6,2.4v13.8a3.75,3.75,0,0,0,.1,1.1l3.5,24c0.5,2.1,6.7,13.1,8.8,13.2l81.1,2.2h0.2l81.1-2.2c2.1-.1,8.3-11.1,8.8-13.2l3.9-24c0.1-.4.6-0.8,0.6-1.1V261.4A7.25,7.25,0,0,0,294.9,258.9Zm-139.5-19-0.4,1h0Z"/><path class="cls-8" d="M288.3,300.6A4.53,4.53,0,0,1,285,302H264.3l-8.4,8H147.4l-8.4-8H118.3a4.71,4.71,0,0,1-3.3-1.4,18.47,18.47,0,0,0-3.4-3.6c-0.3-.2,9.5,21.5,9.5,21.5a7.72,7.72,0,0,0,6.8,4.5H275.4a7.84,7.84,0,0,0,6.8-4.5s9.8-21.6,9.5-21.4A19.12,19.12,0,0,0,288.3,300.6Z"/><path class="cls-8" d="M244.5,249.6H159c-2.2,0-9.4,14-9.4,15.8s2.3,2.6,2.3,2.6l48.2,0.4v-0.1h0v-0.1l49.9-.8s3.4-.3,3.5-2.1S246.8,249.6,244.5,249.6Z"/><path class="cls-8" d="M150.5,277c0,9-1.3,28,51.9,28,52.1,0,51.9-19,51.9-28H150.5Z"/><path class="cls-8" d="M128.9,249.1h10.9a2.14,2.14,0,0,1,2.1,1.7l3.8,22.1a3.16,3.16,0,0,1-3.1,3.7c-8.6.2-29.4,0.6-29.4,0.3,0-.1,1-8.3,2-15.8A13.74,13.74,0,0,1,128.9,249.1Z"/><path class="cls-3" d="M118.3,263.1a10.5,10.5,0,0,0,10.5,10.5,9.67,9.67,0,0,0,2.9-.4,6,6,0,0,1-.7-2.7,5.8,5.8,0,0,1,5.8-5.8,5.93,5.93,0,0,1,2.3.5,14.92,14.92,0,0,0,.2-2.1A10.5,10.5,0,0,0,118.3,263.1Z"/><path class="cls-3" d="M132.8,270.6a3.61,3.61,0,0,0,.6,2,4,4,0,0,0,3.5,2,4.12,4.12,0,0,0,4.1-4.1,3.86,3.86,0,0,0-2.3-3.6,3.42,3.42,0,0,0-1.8-.4A4.06,4.06,0,0,0,132.8,270.6Z"/><path class="cls-8" d="M116.2,280.6s9.6,0.3,16.1,4.9,7.4,9.9,7.4,9.9-19.4.7-20.1-.4c-3-4.5-3.4-14.2-3.4-14.2"/><circle class="cls-3" cx="124.2" cy="289.5" r="4.3"/><circle class="cls-7" cx="201.6" cy="272.4" r="9.9"/><circle class="cls-9" cx="201.6" cy="272.4" r="6.7"/><polyline class="cls-10" points="219 238 206.3 238 203.2 238 198 238"/><path class="cls-11" d="M201.6,238l-78.7-.2s14.5,5.3,39.7,5.9c14.1,0.3,38.7.4,39,.4h0c0.3,0,24.9-.1,39-0.4,25.3-.6,39.7-5.9,39.7-5.9Z"/><path class="cls-8" d="M274.7,249.1H263.8a2.14,2.14,0,0,0-2.1,1.7l-3.8,22.1a3.16,3.16,0,0,0,3.1,3.7c8.6,0.2,29.4.6,29.4,0.3,0-.1-1-8.3-2-15.8A13.89,13.89,0,0,0,274.7,249.1Z"/><path class="cls-3" d="M285.2,263.1a10.5,10.5,0,0,1-10.5,10.5,9.67,9.67,0,0,1-2.9-.4,6,6,0,0,0,.7-2.7,5.8,5.8,0,0,0-5.8-5.8,5.93,5.93,0,0,0-2.3.5,14.92,14.92,0,0,1-.2-2.1A10.5,10.5,0,1,1,285.2,263.1Z"/><path class="cls-3" d="M270.7,270.6a3.61,3.61,0,0,1-.6,2,4,4,0,0,1-3.5,2,4.12,4.12,0,0,1-4.1-4.1,3.86,3.86,0,0,1,2.3-3.6,3.42,3.42,0,0,1,1.8-.4A4.06,4.06,0,0,1,270.7,270.6Z"/><path class="cls-8" d="M287.4,280.6s-9.6.3-16.1,4.9-7.4,9.9-7.4,9.9,19.4,0.7,20.1-.4c3-4.5,3.4-14.2,3.4-14.2"/><circle class="cls-3" cx="279.4" cy="289.5" r="4.3"/><path class="cls-3" d="M257.6,197.8c-4.6-2.6-56.2-3.8-56.9-3.8h0c-0.7,0-52.4,1.2-56.9,3.8s-17,36.2-17,36.2H274.6S262.2,200.4,257.6,197.8Z"/><path class="cls-9" d="M200.6,194h0Z"/><path class="cls-9" d="M200.6,194c-1.7,0-52.4,1.2-56.9,3.8s-17,36.2-17,36.2h73.5l57.2-36.2C252.8,195.2,202.3,194.1,200.6,194Z"/><path class="cls-3" d="M53.4,41.6c5.2,0,8.2,2.6,8.2,7,0,4.6-3,7.3-8.2,7.3H48v6.6H45.6v-21h7.8v0.1ZM48,53.7h5.4c3.8,0,6-1.7,6-5s-2.2-4.8-6-4.8H48v9.8Z"/><path class="cls-3" d="M77.2,60.3v2.3H65.6v-21H68V60.3h9.2Z"/><path class="cls-3" d="M83.2,57.3l-2.3,5.3H78.4l9.4-21h2.5l9.4,21H97l-2.3-5.3H83.2Zm5.7-13L84.2,55h9.4Z"/><path class="cls-3" d="M117.9,62.6L105.3,45.7V62.6h-2.4v-21h2.5L118,58.5V41.6h2.4v21h-2.5Z"/><path class="cls-3" d="M129.2,43.9v6.9h10.6v2.3H129.2v7.2h12.2v2.3H126.8v-21H141v2.3H129.2Z"/><path class="cls-3" d="M159.2,43.5l-1,2.2a10.57,10.57,0,0,0-5.8-1.8c-2.7,0-4.5,1-4.5,2.8,0,5.4,11.8,2.6,11.8,10.2,0,3.5-3.1,5.8-7.6,5.8a11.6,11.6,0,0,1-8-3.2l1.1-2.2a10.31,10.31,0,0,0,7,3c3,0,4.9-1.2,4.9-3.2,0-5.5-11.8-2.6-11.8-10.1,0-3.3,2.9-5.4,7.3-5.4A11.16,11.16,0,0,1,159.2,43.5Z"/><path class="cls-3" d="M189.4,53.8c0,5.5-3.7,9.1-9.6,9.1s-9.7-3.5-9.7-9.1V41.6h5.3V53.8c0,2.9,1.8,4.6,4.4,4.6s4.2-1.7,4.2-4.6V41.6h5.3V53.8h0.1Z"/><path class="cls-3" d="M203,45.9V62.6h-5.3V45.9h-6.3V41.6h17.9v4.3H203Z"/><path class="cls-3" d="M211.6,62.6v-21h5.3v21h-5.3Z"/><path class="cls-3" d="M235.4,58.1v4.5H221.2v-21h5.3V58.1h8.9Z"/><path class="cls-3" d="M237.9,62.6v-21h5.3v21h-5.3Z"/><path class="cls-3" d="M257.2,45.9V62.6h-5.3V45.9h-6.3V41.6h17.9v4.3h-6.3Z"/><path class="cls-3" d="M268.3,58.7l-1.5,3.9h-5.5l9.1-21h5.5l8.8,21H279l-1.5-3.9h-9.2Zm4.6-11.8-3.1,7.8h6.1Z"/><path class="cls-3" d="M296.2,56.7H292v5.9h-5.3v-21h9.4c5.5,0,8.7,2.6,8.7,7.3,0,3.2-1.3,5.5-3.8,6.8l4.4,6.9h-6.1ZM296,52.5c2.3,0,3.7-1.2,3.7-3.4s-1.3-3.3-3.7-3.3h-4v6.7h4Z"/><path class="cls-3" d="M308.3,62.6v-21h5.3v21h-5.3Z"/><path class="cls-3" d="M339.2,52.1c0,6.1-4.9,10.8-11.4,10.8s-11.3-4.6-11.3-10.8,4.9-10.6,11.3-10.6C334.4,41.4,339.2,46,339.2,52.1Zm-17.2,0a6.13,6.13,0,0,0,5.9,6.3,6,6,0,0,0,5.8-6.3,6,6,0,0,0-5.8-6.2A6,6,0,0,0,322,52.1Z"/><path class="cls-3" d="M358.4,43.7l-2,4.2a15.43,15.43,0,0,0-6.7-2.2c-1.4,0-2.3.5-2.3,1.5,0,3.6,11.1,1.6,11.1,9.1,0,4.2-3.7,6.4-8.4,6.4a15.37,15.37,0,0,1-9.6-3.4l2.1-4.1a13,13,0,0,0,7.6,3.1c1.7,0,2.7-.6,2.7-1.8,0-3.7-11.1-1.5-11.1-8.9,0-3.9,3.3-6.3,8.4-6.3A17.11,17.11,0,0,1,358.4,43.7Z"/><path class="cls-3" d="M90.2,100h-3V97.6a5.48,5.48,0,0,1-4.9,2.5c-4,0-6.6-2.9-6.6-7.1s2.7-7,6.6-7a5.48,5.48,0,0,1,4.9,2.5V80.6h3V100Zm-3-6.9c0-2.7-1.7-4.6-4.2-4.6s-4.2,1.9-4.3,4.6A4.2,4.2,0,0,0,83,97.6C85.5,97.6,87.2,95.8,87.2,93.1Z"/><path class="cls-3" d="M106.9,94.2H96.5a4.3,4.3,0,0,0,4.3,3.5,5.52,5.52,0,0,0,3.9-1.6l1.6,1.7a7.45,7.45,0,0,1-5.7,2.3c-4.3,0-7.1-2.8-7.1-7a6.67,6.67,0,0,1,7-7C105.3,86.1,107.3,89.2,106.9,94.2ZM104.3,92a3.57,3.57,0,0,0-3.8-3.6A4,4,0,0,0,96.4,92h7.9Z"/><path class="cls-3" d="M124.6,99.1a7,7,0,0,1-3.4,1,3.65,3.65,0,0,1-3.9-4V88.9h-2V86.7h2V82.9h3v3.8h4.1v2.2h-4.1v6.6c0,1.4.5,1.9,1.5,1.9a4.83,4.83,0,0,0,2.1-.6Z"/><path class="cls-3" d="M140.3,93.1c0,4.2-2.9,7-7.2,7s-7.2-2.9-7.2-7,2.9-7,7.2-7S140.3,88.9,140.3,93.1Zm-11.4,0c0,2.7,1.7,4.5,4.2,4.5s4.2-1.8,4.2-4.5-1.7-4.5-4.2-4.5A4.18,4.18,0,0,0,128.9,93.1Z"/><path class="cls-3" d="M156.6,100h-3V97.6a5.48,5.48,0,0,1-4.9,2.5c-4,0-6.6-2.9-6.6-7.1s2.7-7,6.6-7a5.48,5.48,0,0,1,4.9,2.5V80.6h3V100Zm-3-6.9c0-2.7-1.7-4.6-4.2-4.6s-4.2,1.9-4.3,4.6a4.2,4.2,0,0,0,4.3,4.5C151.9,97.6,153.6,95.8,153.6,93.1Z"/><path class="cls-3" d="M169.4,98.3a5.74,5.74,0,0,1-4.6,1.8c-3,0-4.9-1.8-4.9-4.3s1.9-4.1,5.2-4.2h4.2V91.2c0-1.7-1.1-2.8-3.3-2.8a7.76,7.76,0,0,0-4.1,1.4l-1.2-2.1a10.36,10.36,0,0,1,6-1.7c3.6,0,5.6,1.8,5.6,4.9V100h-2.9V98.3Zm0-3.2V93.8h-3.7c-2,0-2.9.5-2.9,1.8s1,2.1,2.7,2.1C167.6,97.8,169.3,96.6,169.4,95.1Z"/><path class="cls-3" d="M185.4,87.4l-1.1,2.2a7.72,7.72,0,0,0-4-1.2c-1.2,0-2,.4-2,1.4,0,2.5,7.4,1.2,7.3,6.2,0,2.8-2.5,4.1-5.3,4.1a9,9,0,0,1-5.6-1.9l1.1-2.1a7.27,7.27,0,0,0,4.6,1.7c1.3,0,2.3-.4,2.3-1.5,0-2.8-7.3-1.2-7.3-6.2,0-2.8,2.4-4,5.1-4A8.76,8.76,0,0,1,185.4,87.4Z"/><path class="cls-3" d="M195.4,100V80.7h3V100h-3Z"/><path class="cls-3" d="M211.3,98.3a5.74,5.74,0,0,1-4.6,1.8c-3,0-4.9-1.8-4.9-4.3s1.9-4.1,5.2-4.2h4.2V91.2c0-1.7-1.1-2.8-3.3-2.8a7.76,7.76,0,0,0-4.1,1.4l-1.2-2.1a10.36,10.36,0,0,1,6-1.7c3.6,0,5.6,1.8,5.6,4.9V100h-2.9V98.3Zm0-3.2V93.8h-3.7c-2,0-2.9.5-2.9,1.8s1,2.1,2.7,2.1C209.5,97.8,211.1,96.6,211.3,95.1Z"/><path class="cls-3" d="M227.2,87.4l-1.1,2.2a7.72,7.72,0,0,0-4-1.2c-1.2,0-2,.4-2,1.4,0,2.5,7.4,1.2,7.3,6.2,0,2.8-2.5,4.1-5.3,4.1a9,9,0,0,1-5.6-1.9l1.1-2.1a7.27,7.27,0,0,0,4.6,1.7c1.3,0,2.3-.4,2.3-1.5,0-2.8-7.3-1.2-7.3-6.2,0-2.8,2.4-4,5.1-4A8.76,8.76,0,0,1,227.2,87.4Z"/><path class="cls-3" d="M260.3,91.4V100h-3V92.2a3.08,3.08,0,0,0-3.3-3.4c-2.4.1-3.8,1.9-3.8,4.3v6.8h-3V92.1c0-2.1-1.2-3.4-3.2-3.4-2.4.1-3.8,1.9-3.8,4.3v6.8h-3V86.2h3v2.7c1-2,2.7-2.8,5-2.8,2.5,0,4.2,1.2,4.8,3.3,0.9-2.3,2.7-3.3,5.3-3.3C258.4,86.1,260.3,88.1,260.3,91.4Z"/><path class="cls-3" d="M272.6,98.3a5.74,5.74,0,0,1-4.6,1.8c-3,0-4.9-1.8-4.9-4.3s1.9-4.1,5.2-4.2h4.2V91.2c0-1.7-1.1-2.8-3.3-2.8a7.76,7.76,0,0,0-4.1,1.4l-1.2-2.1a10.36,10.36,0,0,1,6-1.7c3.6,0,5.6,1.8,5.6,4.9V100h-2.9V98.3h0Zm-0.1-3.2V93.8h-3.7c-2,0-2.9.5-2.9,1.8s1,2.1,2.7,2.1C270.7,97.8,272.4,96.6,272.5,95.1Z"/><path class="cls-3" d="M282.5,88.9a5,5,0,0,1,4.8-2.9v2.9a4.21,4.21,0,0,0-4.8,3.8v7.2h-3V86.2h3v2.7Z"/><path class="cls-3" d="M301.1,88.3l-1.6,1.9a5.42,5.42,0,0,0-4-1.6,4.41,4.41,0,0,0,0,8.8,5.35,5.35,0,0,0,4.1-1.7l1.7,1.7a7.18,7.18,0,0,1-5.9,2.6,7,7,0,1,1,0-14A7.71,7.71,0,0,1,301.1,88.3Z"/><path class="cls-3" d="M312.1,98.3a5.74,5.74,0,0,1-4.6,1.8c-3,0-4.9-1.8-4.9-4.3s1.9-4.1,5.2-4.2H312V91.2c0-1.7-1.1-2.8-3.3-2.8a7.76,7.76,0,0,0-4.1,1.4l-1.2-2.1a10.36,10.36,0,0,1,6-1.7c3.6,0,5.6,1.8,5.6,4.9V100h-2.9V98.3h0Zm0-3.2V93.8h-3.7c-2,0-2.9.5-2.9,1.8s1,2.1,2.7,2.1C310.3,97.8,312,96.6,312.1,95.1Z"/><path class="cls-3" d="M328,87.4l-1.1,2.2a7.72,7.72,0,0,0-4-1.2c-1.2,0-2,.4-2,1.4,0,2.5,7.4,1.2,7.3,6.2,0,2.8-2.5,4.1-5.3,4.1a9,9,0,0,1-5.6-1.9l1.1-2.1a7.27,7.27,0,0,0,4.6,1.7c1.3,0,2.3-.4,2.3-1.5,0-2.8-7.3-1.2-7.3-6.2,0-2.8,2.4-4,5.1-4A8.33,8.33,0,0,1,328,87.4Z"/></svg>