<svg id="Capa_1" data-name="Capa 1" xmlns="http://www.w3.org/2000/svg" viewBox="0 0 404 404"><defs><style>.cls-1{fill:#9dcb42;}.cls-2{fill:#749623;}.cls-3{fill:#ff7a5d;}.cls-4{fill:#575757;}.cls-5{fill:#ff3d00;}.cls-6{fill:#b72c21;}.cls-7{fill:#fff;}.cls-8{fill:#ad4525;}.cls-9{fill:#eceeee;}</style></defs><title>planes-de-ahorro-nuevos</title><rect class="cls-1" width="404" height="404"/><ellipse class="cls-2" cx="202" cy="353.22" rx="102.01" ry="4.8"/><path class="cls-3" d="M126.22,238.92v6.7H106.7s-6.78.66-6.7-7.16,20.1-10.55,21.48-8.95c0.43,0.49.44,9.54,0.44,9.54Z"/><path class="cls-3" d="M277.82,238.92v6.7h19.48s6.78,0.66,6.71-7.16-20.12-10.55-21.5-8.95c-0.43.49-.41,9.54-0.41,9.54Z"/><path d="M134.2,351.67a3,3,0,0,1-3,3h-18a3,3,0,0,1-3-3V307.1a3,3,0,0,1,3-3h18a3,3,0,0,1,3,3v44.57Z"/><path class="cls-4" d="M110.26,309.14v0Z"/><path class="cls-4" d="M132.38,305.1v49.64c0-.16,2.66-1.38,2.66-2.87V308C135,306.49,132.38,305.28,132.38,305.1Z"/><path class="cls-4" d="M111.82,355.94h0.33a2.71,2.71,0,0,1-.33,0v0Z"/><path class="cls-4" d="M111.82,306.24v0a2.51,2.51,0,0,1,.33,0h-0.33Z"/><path class="cls-4" d="M129.81,355.94v0a2.56,2.56,0,0,1-.34,0h0.34Z"/><path class="cls-4" d="M129.81,306.24h-0.34a2.38,2.38,0,0,1,.34,0v0Z"/><path d="M296.44,307.1a3,3,0,0,0-3-3h-18a3,3,0,0,0-3,3v44.57a3,3,0,0,0,3,3h18a3,3,0,0,0,3-3V307.1Z"/><path class="cls-4" d="M296.12,308v43.89c0,1.5,0,2.72-2.67,2.87V305.1C296.12,305.28,296.12,306.49,296.12,308Z"/><path class="cls-4" d="M275.17,305.1v49.64c0-.16-2.67-1.38-2.67-2.87V308C272.5,306.49,275.17,305.28,275.17,305.1Z"/><path class="cls-4" d="M292.18,355.94h-0.34a2.54,2.54,0,0,0,.34,0v0Z"/><path class="cls-4" d="M292.18,306.24v0a2.37,2.37,0,0,0-.34,0h0.34Z"/><path class="cls-4" d="M274.19,355.94v0a2.32,2.32,0,0,0,.34,0h-0.34Z"/><path class="cls-4" d="M274.19,306.24h0.34a1.81,1.81,0,0,0-.34,0v0Z"/><path class="cls-5" d="M282.37,239.07l-3.25-.11,0-.06S261.83,203.12,256.27,201,202,199.41,202,199.41s-48.71-.5-54.27,1.6S124.87,238.95,124.86,239l-3.22.12L100,238.45c-0.07,7.82,6.71,7.17,6.71,7.17H123.1c-4.82,8-13.75,23-15.57,30-2.52,9.66,1.43,46.6,1.43,46.6s0,7.8,1.46,9.7,2.93,1.48,2.93,1.48-1.75,5.74,2.5,6.45c15.79,2.63,85.26,2.39,85.26,2.39L202,342.3l0.9-.05s69.41,0.27,85.2-2.38c4.26-.71,2.51-6.44,2.51-6.44s1.48,0.44,2.94-1.46,1.48-9.7,1.48-9.7,3.95-37.07,1.42-46.72c-1.84-7-10.73-22-15.58-30h16.41s6.79,0.66,6.71-7.16ZM202,241.88l-23.49-.27,23.51-.06,23.48,0.06Zm76.23-.32h0l0.13-.39v0.63Z"/><path class="cls-6" d="M111.82,299.13s13.83,2.34,22.33,10.37,8.77,15.8,8.77,15.8-28.19-2.9-29-4.68c-3.38-7.1-2.05-21.22-2.05-21.22"/><path class="cls-6" d="M111.1,327.41l52.75,1.94-49.92-5.57s-2.86.18-3,1.94C110.92,326.2,110.76,327.49,111.1,327.41Z"/><path class="cls-7" d="M125.21,305.42a7.68,7.68,0,1,1-7.68,7.69A7.68,7.68,0,0,1,125.21,305.42Z"/><path class="cls-6" d="M149.89,288.52l5.27-6.47s4.27-4.94,3.95-6.27-38.29-13.93-41.59-13.38-5.24,17.45-4.71,18.89,14.24,5.89,18.44,6.14Z"/><path class="cls-7" d="M128.71,268.55a7.68,7.68,0,1,1-7.68,7.69A7.69,7.69,0,0,1,128.71,268.55Z"/><circle class="cls-7" cx="144.51" cy="279.75" r="6.93"/><line class="cls-8" x1="201.17" y1="344.3" x2="201.17" y2="344.3"/><path class="cls-6" d="M290.84,334.25l-0.17-.83-38,2.49-5.05-3.07L200,334.2h0l-45.51-1.37-3.6,3.07-37.78-2.49-0.06.83s-0.66,3.23.84,4.78a16.89,16.89,0,0,0,3.76,2.7l83.51,1.2,84.75-1.77a8.83,8.83,0,0,0,3.86-2.09C291.3,337.52,290.84,334.25,290.84,334.25Z"/><path class="cls-3" d="M202,241.55l-75.76-.89s13.9,24.43,38.21,27.22c13.59,1.55,37.26,1.78,37.55,1.78h0c0.28,0,24-.23,37.54-1.78,24.32-2.79,38.22-27.12,38.22-27.12Z"/><path class="cls-6" d="M236.81,280.18H167.19c-1.82,0-7.69,11.36-7.62,12.85s1.85,2.15,1.85,2.15l39.27,0.35v-0.05h0v-0.05l40.6-.68s2.74-.25,2.82-1.71S238.64,280.18,236.81,280.18Z"/><path class="cls-6" d="M202,304.12L160.07,304s0.58,9.72,1.19,12c0.39,1.43,3.46,11.47,13.82,13S202,331,202,331s16.55-.39,26.9-1.94,13.45-11.5,13.83-12.92c0.6-2.33,1.19-12,1.19-12H202Z"/><path class="cls-7" d="M258.5,207.19c-4.54-2.33-55.77-3.4-56.49-3.41h0c-0.73,0-51.95,1.08-56.48,3.41s-16.86,32.61-16.86,32.61h146.7S263.07,209.54,258.5,207.19Z"/><path class="cls-9" d="M201.9,203.8h0Z"/><path class="cls-9" d="M201.95,203.8c-1.73,0-51.95,1.09-56.45,3.39s-16.86,32.59-16.86,32.59h72.93l56.72-32.59C253.78,204.88,203.68,203.82,201.95,203.8Z"/><path class="cls-6" d="M292.18,299.13s-13.83,2.34-22.32,10.37-8.78,15.8-8.78,15.8,28.2-2.9,29-4.68c3.38-7.1,2-21.22,2-21.22"/><path class="cls-6" d="M292.9,327.41l-52.75,1.94,49.93-5.57s2.86,0.18,3,1.94C293.08,326.2,293.24,327.49,292.9,327.41Z"/><path class="cls-7" d="M278.8,305.42a7.68,7.68,0,1,1-7.69,7.69A7.69,7.69,0,0,1,278.8,305.42Z"/><path class="cls-6" d="M254.11,288.52l-5.26-6.47s-4.28-4.94-3.95-6.27,38.28-13.93,41.59-13.38,5.25,17.45,4.71,18.89-14.23,5.89-18.43,6.14Z"/><circle class="cls-7" cx="275.28" cy="276.23" r="7.68"/><circle class="cls-7" cx="259.48" cy="279.75" r="6.93"/><circle class="cls-5" cx="201.05" cy="300.37" r="8.24"/><circle class="cls-9" cx="201.05" cy="300.37" r="5.55"/><path class="cls-7" d="M326.5,242.2a1,1,0,0,0,1.4.4l26.8-11.8a1.1,1.1,0,0,0,.5-1.5,1.18,1.18,0,0,0-1.5-.6l-26.6,12.2A1,1,0,0,0,326.5,242.2Z"/><path class="cls-7" d="M322.6,234.4a1.05,1.05,0,0,0,1.4.3l19.5-10.3a1.1,1.1,0,0,0,.4-1.5,1.24,1.24,0,0,0-1.5-.5L323,233A1.33,1.33,0,0,0,322.6,234.4Z"/><path class="cls-7" d="M329.6,249.8a1,1,0,0,0,1.3.5l20.7-7.6a1,1,0,0,0,.6-1.4,1.08,1.08,0,0,0-1.4-.7l-20.6,7.9A1.47,1.47,0,0,0,329.6,249.8Z"/><path class="cls-7" d="M288.6,193.8a1.09,1.09,0,0,0,1.4-.2l18.4-22.8a1.13,1.13,0,0,0-.2-1.6,1.08,1.08,0,0,0-1.5.1l-18.1,23A1.18,1.18,0,0,0,288.6,193.8Z"/><path class="cls-7" d="M281.6,188.6a1.05,1.05,0,0,0,1.4-.4l12.7-18a1.12,1.12,0,0,0-.3-1.5,1.1,1.1,0,0,0-1.5.3l-12.5,18.2A1,1,0,0,0,281.6,188.6Z"/><path class="cls-7" d="M295,199.3a1,1,0,0,0,1.4-.2l14.9-16.3a1.06,1.06,0,0,0-1.6-1.4L295,197.9A1.06,1.06,0,0,0,295,199.3Z"/><path class="cls-7" d="M232.8,167.4a1,1,0,0,0,1.1-.8l6.5-28.5a1.19,1.19,0,0,0-.9-1.3,1.07,1.07,0,0,0-1.3.8l-6.1,28.6A1,1,0,0,0,232.8,167.4Z"/><path class="cls-7" d="M224.2,165.7a1,1,0,0,0,1.1-.9l3.6-21.8a1.06,1.06,0,0,0-2.1-.3l-3.3,21.8A0.93,0.93,0,0,0,224.2,165.7Z"/><path class="cls-7" d="M241,169.4a1.06,1.06,0,0,0,1.2-.8l6.2-21.2a1,1,0,0,0-.8-1.3,1,1,0,0,0-1.3.7l-5.9,21.3A1,1,0,0,0,241,169.4Z"/><path class="cls-7" d="M170.9,167.5a1,1,0,0,0,.7-1.2l-6.3-28.6a1.07,1.07,0,0,0-1.3-.8,1.13,1.13,0,0,0-.9,1.3l6.7,28.5A0.88,0.88,0,0,0,170.9,167.5Z"/><path class="cls-7" d="M162.4,169.7a1,1,0,0,0,.6-1.3l-6.1-21.2a1,1,0,0,0-1.3-.7,1,1,0,0,0-.7,1.3l6.4,21.1A0.88,0.88,0,0,0,162.4,169.7Z"/><path class="cls-7" d="M179.1,165.9a1,1,0,0,0,.7-1.2l-3.4-21.8a1,1,0,0,0-1.2-.9,1.09,1.09,0,0,0-.9,1.2L178,165A1,1,0,0,0,179.1,165.9Z"/><path class="cls-7" d="M115.2,194.2a1.05,1.05,0,0,0,.1-1.4l-18.2-23a1.17,1.17,0,0,0-1.8,1.5L113.8,194A0.91,0.91,0,0,0,115.2,194.2Z"/><path class="cls-7" d="M108.6,199.9a1,1,0,0,0,0-1.4L93.8,182.1a1.06,1.06,0,1,0-1.6,1.4l15,16.2A0.91,0.91,0,0,0,108.6,199.9Z"/><path class="cls-7" d="M121.9,189.2a1.06,1.06,0,0,0,.2-1.4l-12.6-18.1a1.08,1.08,0,0,0-1.8,1.2l12.8,18A1,1,0,0,0,121.9,189.2Z"/><path class="cls-7" d="M77.6,242.7a1,1,0,0,0-.6-1.3L50.3,229.3a1.22,1.22,0,0,0-1.5.6,1.14,1.14,0,0,0,.5,1.5l26.8,11.7A1.08,1.08,0,0,0,77.6,242.7Z"/><path class="cls-7" d="M74.3,250.8a0.92,0.92,0,0,0-.7-1.2L53,241.8a1.08,1.08,0,0,0-1.4.7,1.11,1.11,0,0,0,.6,1.4L73,251.3A1,1,0,0,0,74.3,250.8Z"/><path class="cls-7" d="M81.2,235.3a1.06,1.06,0,0,0-.5-1.3L61.2,223.6a1.08,1.08,0,0,0-1.5.5,1.1,1.1,0,0,0,.4,1.5l19.6,10.1A1.24,1.24,0,0,0,81.2,235.3Z"/><path class="cls-7" d="M83,42c5.19,0,8.19,2.58,8.19,7,0,4.65-3,7.32-8.19,7.32H77.47V63h-2.4V42H83ZM77.47,54.1h5.4c3.78,0,6-1.68,6-5s-2.19-4.8-6-4.8h-5.4V54.1Z"/><path class="cls-7" d="M106.75,60.76V63H95.14V42h2.4V60.76h9.21Z"/><path class="cls-7" d="M112.72,57.73L110.38,63h-2.55l9.42-21h2.49l9.39,21h-2.61l-2.34-5.31H112.72Zm5.7-13-4.68,10.65h9.42Z"/><path class="cls-7" d="M147.43,63l-12.6-16.86V63h-2.4V42h2.49l12.6,16.89V42h2.37V63h-2.46Z"/><path class="cls-7" d="M158.68,44.35v6.9h10.59v2.31H158.68v7.2h12.24V63H156.28V42h14.25v2.31H158.68Z"/><path class="cls-7" d="M188.71,43.9l-1,2.25a10.85,10.85,0,0,0-5.79-1.77c-2.7,0-4.47,1-4.47,2.79,0,5.4,11.82,2.58,11.79,10.2,0,3.51-3.09,5.76-7.59,5.76a12,12,0,0,1-8-3.21l1.08-2.16a10.44,10.44,0,0,0,7,3c3,0,4.92-1.23,4.92-3.24,0-5.52-11.79-2.58-11.79-10.11,0-3.3,2.91-5.43,7.26-5.43A12.42,12.42,0,0,1,188.71,43.9Z"/><path class="cls-7" d="M214.69,63L205,50.11V63h-5V42h4.71l9.69,13V42h5V63h-4.71Z"/><path class="cls-7" d="M242.5,54.22c0,5.55-3.69,9.06-9.57,9.06s-9.69-3.51-9.69-9.06V42h5.34V54.22A4.23,4.23,0,0,0,233,58.81c2.52,0,4.23-1.74,4.23-4.59V42h5.31V54.22Z"/><path class="cls-7" d="M251.68,46.24v4.17h10v4.2h-10v4.23h11.43V63H246.34V42h16.44v4.2h-11.1Z"/><path class="cls-7" d="M272.59,63l-8.16-21h5.7l5.37,15.45L280.87,42h5.49l-8.25,21h-5.52Z"/><path class="cls-7" d="M309.7,52.51c0,6.12-4.86,10.77-11.37,10.77S287,58.66,287,52.51s4.86-10.65,11.34-10.65S309.7,46.42,309.7,52.51Zm-17.25,0a6.11,6.11,0,0,0,5.94,6.27,6,6,0,0,0,5.82-6.27,5.94,5.94,0,0,0-5.82-6.21A6,6,0,0,0,292.45,52.54Z"/><path class="cls-7" d="M328.87,44.14l-2,4.17a15.65,15.65,0,0,0-6.72-2.19c-1.38,0-2.31.51-2.31,1.53,0,3.63,11.1,1.56,11.1,9.15,0,4.2-3.72,6.42-8.4,6.42a15.66,15.66,0,0,1-9.6-3.36L313,55.75a13.09,13.09,0,0,0,7.59,3.15c1.68,0,2.73-.63,2.73-1.83,0-3.72-11.1-1.5-11.1-8.94,0-3.87,3.33-6.33,8.37-6.33A15.77,15.77,0,0,1,328.87,44.14Z"/><path class="cls-7" d="M106.48,100.45h-3V98.08a5.36,5.36,0,0,1-4.86,2.5c-4,0-6.63-2.89-6.63-7.1s2.68-7,6.58-7A5.47,5.47,0,0,1,103.49,89V81.15h3v19.29Zm-3-6.86A4.21,4.21,0,0,0,99.25,89,4.26,4.26,0,0,0,95,93.58,4.26,4.26,0,1,0,103.49,93.58Z"/><path class="cls-7" d="M123.19,94.67H112.74A4.21,4.21,0,0,0,117,98.13a5.38,5.38,0,0,0,3.9-1.61l1.59,1.69a7.53,7.53,0,0,1-5.72,2.34,7,7,0,1,1-.08-14C121.58,86.51,123.56,89.68,123.19,94.67Zm-2.6-2.18a3.55,3.55,0,0,0-3.85-3.59,3.94,3.94,0,0,0-4.06,3.59h7.9Z"/><path class="cls-7" d="M140.85,99.56a6.64,6.64,0,0,1-3.41,1c-2.08,0-3.87-1.2-3.87-4V89.37h-1.95V87.13h1.95v-3.8h3v3.8h4.08v2.24h-4.08V96c0,1.43.55,1.87,1.48,1.87a4.83,4.83,0,0,0,2.08-.6Z"/><path class="cls-7" d="M156.58,93.53c0,4.16-2.94,7-7.2,7s-7.23-2.86-7.23-7,2.94-7,7.23-7S156.58,89.34,156.58,93.53Zm-11.44,0a4.23,4.23,0,1,0,4.24-4.47A4.17,4.17,0,0,0,145.14,93.55Z"/><path class="cls-7" d="M172.88,100.45h-3V98.08a5.36,5.36,0,0,1-4.86,2.5c-4,0-6.63-2.89-6.63-7.1s2.68-7,6.58-7A5.47,5.47,0,0,1,169.89,89V81.15h3v19.29Zm-3-6.86A4.21,4.21,0,0,0,165.65,89a4.26,4.26,0,0,0-4.26,4.55A4.26,4.26,0,1,0,169.89,93.58Z"/><path class="cls-7" d="M190.56,93.53c0,4.16-2.94,7-7.2,7s-7.23-2.86-7.23-7,2.94-7,7.23-7S190.56,89.34,190.56,93.53Zm-11.44,0a4.23,4.23,0,1,0,4.24-4.47A4.17,4.17,0,0,0,179.12,93.55Z"/><path class="cls-7" d="M202.65,87.89l-1.09,2.21a8.13,8.13,0,0,0-4-1.22c-1.17,0-2,.39-2,1.38,0,2.55,7.36,1.17,7.33,6.19,0,2.83-2.52,4.11-5.3,4.11A8.56,8.56,0,0,1,192,98.62l1.07-2.13a7.54,7.54,0,0,0,4.63,1.72c1.27,0,2.26-.44,2.26-1.48,0-2.83-7.28-1.25-7.25-6.24,0-2.81,2.44-4,5.1-4A8.74,8.74,0,0,1,202.65,87.89Z"/><path class="cls-7" d="M212.74,100.45V81.15h3v19.29h-3Z"/><path class="cls-7" d="M233.41,93.53c0,4.16-2.94,7-7.2,7s-7.23-2.86-7.23-7,2.94-7,7.23-7S233.41,89.34,233.41,93.53Zm-11.44,0a4.23,4.23,0,1,0,4.24-4.47A4.17,4.17,0,0,0,222,93.55Z"/><path class="cls-7" d="M245.5,87.89l-1.09,2.21a8.13,8.13,0,0,0-4-1.22c-1.17,0-2,.39-2,1.38,0,2.55,7.36,1.17,7.33,6.19,0,2.83-2.52,4.11-5.3,4.11a8.56,8.56,0,0,1-5.56-1.92l1.07-2.13a7.54,7.54,0,0,0,4.63,1.72c1.27,0,2.26-.44,2.26-1.48,0-2.83-7.28-1.25-7.25-6.24,0-2.81,2.44-4,5.1-4A8.74,8.74,0,0,1,245.5,87.89Z"/><path class="cls-7" d="M270,91.34c0,5.9-2.76,9.18-7.72,9.18s-7.75-3.28-7.75-9.18,2.76-9.18,7.75-9.18S270,85.44,270,91.34Zm-12.33,0c0,4.6,1.53,6.76,4.6,6.76s4.58-2.16,4.58-6.76-1.53-6.76-4.58-6.76S257.64,86.72,257.64,91.34Z"/><path class="cls-7" d="M276.54,96.57v3.87h-3V81.15h3V92.8l6.11-6.19h3.43L281,92l5.51,8.48h-3.54l-4.06-6.34Z"/><path class="cls-7" d="M312,91.84v8.61h-3V92.67a3.08,3.08,0,0,0-3.28-3.38c-2.37.08-3.8,1.9-3.8,4.32v6.84h-3V92.67a3.06,3.06,0,0,0-3.25-3.38c-2.39.08-3.85,1.9-3.85,4.32v6.84h-3V86.61h3v2.68c1-2,2.73-2.78,5-2.78a4.64,4.64,0,0,1,4.81,3.33c0.88-2.31,2.73-3.33,5.25-3.33C310.11,86.51,312,88.54,312,91.84Z"/></svg>